<?xml version="1.0" encoding="UTF-8"?>
<svg id="Layer_1" xmlns="http://www.w3.org/2000/svg" baseProfile="tiny" version="1.2" viewBox="0 0 1593 1554">
  <!-- Generator: Adobe Illustrator 29.8.3, SVG Export Plug-In . SVG Version: 2.1.1 Build 3)  -->
  <defs>
    <style>
      .st0 {
        fill: #ff80e5;
      }

      .st0, .st1, .st2, .st3, .st4, .st5, .st6, .st7, .st8, .st9, .st10, .st11, .st12 {
        stroke: #000;
        stroke-linejoin: bevel;
      }

      .st0, .st1, .st2, .st3, .st5, .st6, .st7, .st8, .st9, .st10, .st13, .st11, .st12 {
        fill-rule: evenodd;
      }

      .st0, .st1, .st2, .st3, .st5, .st6, .st7, .st8, .st9, .st10, .st11, .st12 {
        stroke-linecap: square;
        stroke-width: 1px;
      }

      .st1 {
        fill: #e580ff;
      }

      .st3 {
        fill: #faa;
      }

      .st4 {
        fill: none;
        stroke-linecap: round;
        stroke-width: 2px;
      }

      .st5 {
        fill: #afa;
      }

      .st6 {
        fill: #fff;
      }

      .st7, .st13, .st12 {
        fill-opacity: 0;
      }

      .st14 {
        font-size: 6px;
      }

      .st14, .st15, .st16 {
        font-family: Baskerville, Baskerville;
        isolation: isolate;
      }

      .st8 {
        fill: #afc6e9;
      }

      .st9 {
        fill: #c6afe9;
      }

      .st10 {
        fill: #e9afc6;
      }

      .st15 {
        font-size: 9.99px;
      }

      .st16 {
        font-size: 10px;
      }

      .st11 {
        fill: #fea;
      }

      .st12 {
        stroke-opacity: 0;
      }
    </style>
  </defs>
  <path class="st13" d="M0,0h1593v1553.93H0V0" vector-effect="non-scaling-stroke"/>
  <g>
    <line class="st4" x1="928.85" y1="561.68" x2="824.35" y2="742.93" vector-effect="none"/>
    <line class="st4" x1="872.56" y1="646.67" x2="881.55" y2="651.67" vector-effect="none"/>
  </g>
  <g>
    <line class="st4" x1="928.85" y1="561.68" x2="974.61" y2="441.43" vector-effect="none"/>
    <line class="st4" x1="945.52" y1="501.75" x2="954.51" y2="504.74" vector-effect="none"/>
  </g>
  <g>
    <line class="st4" x1="928.85" y1="561.68" x2="888.35" y2="410.01" vector-effect="none"/>
    <line class="st4" x1="913.54" y1="486.75" x2="903.54" y2="488.75" vector-effect="none"/>
  </g>
  <g>
    <line class="st4" x1="1231.87" y1="847.83" x2="1081.51" y2="1035.19" vector-effect="none"/>
    <line class="st4" x1="1153.41" y1="935.52" x2="1161.41" y2="942.52" vector-effect="none"/>
  </g>
  <g>
    <line class="st4" x1="1231.87" y1="847.83" x2="1314" y2="787.42" vector-effect="none"/>
    <line class="st4" x1="1267.36" y1="814.59" x2="1273.35" y2="822.58" vector-effect="none"/>
  </g>
  <g>
    <line class="st4" x1="1231.87" y1="847.83" x2="1140.6" y2="760.07" vector-effect="none"/>
    <line class="st4" x1="1191.39" y1="801.59" x2="1184.4" y2="808.59" vector-effect="none"/>
  </g>
  <g>
    <line class="st4" x1="824.35" y1="742.93" x2="783.25" y2="1060.32" vector-effect="none"/>
    <line class="st4" x1="798.59" y1="897.54" x2="808.59" y2="899.54" vector-effect="none"/>
  </g>
  <g>
    <line class="st4" x1="824.35" y1="742.93" x2="891.43" y2="768.27" vector-effect="none"/>
    <line class="st4" x1="856.56" y1="749.62" x2="853.57" y2="758.61" vector-effect="none"/>
  </g>
  <g>
    <line class="st4" x1="824.35" y1="742.93" x2="885.56" y2="663.11" vector-effect="none"/>
    <line class="st4" x1="848.57" y1="701.64" x2="856.56" y2="707.64" vector-effect="none"/>
  </g>
  <g>
    <line class="st4" x1="824.35" y1="742.93" x2="703.29" y2="788.01" vector-effect="none"/>
    <line class="st4" x1="763.61" y1="759.61" x2="767.61" y2="768.61" vector-effect="none"/>
  </g>
  <g>
    <line class="st4" x1="824.35" y1="742.93" x2="811.43" y2="635.49" vector-effect="none"/>
    <line class="st4" x1="822.58" y1="690.65" x2="812.59" y2="691.65" vector-effect="none"/>
  </g>
  <g>
    <line class="st4" x1="1081.51" y1="1035.19" x2="961.23" y2="1105.13" vector-effect="none"/>
    <line class="st4" x1="1020.48" y1="1064.46" x2="1025.48" y2="1072.46" vector-effect="none"/>
  </g>
  <g>
    <line class="st4" x1="1081.51" y1="1035.19" x2="1050.57" y2="1135.63" vector-effect="none"/>
    <line class="st4" x1="1061.46" y1="1081.45" x2="1071.46" y2="1084.45" vector-effect="none"/>
  </g>
  <g>
    <line class="st4" x1="1081.51" y1="1035.19" x2="883.9" y2="830.59" vector-effect="none"/>
    <line class="st4" x1="987.5" y1="930.53" x2="980.5" y2="937.52" vector-effect="none"/>
  </g>
  <g>
    <line class="st4" x1="1081.51" y1="1035.19" x2="816.04" y2="876.64" vector-effect="none"/>
    <line class="st4" x1="952.52" y1="952.52" x2="947.52" y2="960.51" vector-effect="none"/>
  </g>
  <g>
    <line class="st4" x1="1081.51" y1="1035.19" x2="1037.56" y2="838.39" vector-effect="none"/>
    <line class="st4" x1="1064.46" y1="937.52" x2="1054.46" y2="939.52" vector-effect="none"/>
  </g>
  <g>
    <line class="st4" x1="1081.51" y1="1035.19" x2="861.12" y2="895.99" vector-effect="none"/>
    <line class="st4" x1="975.5" y1="962.51" x2="970.51" y2="970.51" vector-effect="none"/>
  </g>
  <g>
    <line class="st4" x1="1081.51" y1="1035.19" x2="1156.65" y2="982.98" vector-effect="none"/>
    <line class="st4" x1="1113.43" y1="1005.49" x2="1119.43" y2="1014.48" vector-effect="none"/>
  </g>
  <g>
    <line class="st4" x1="1081.51" y1="1035.19" x2="1227.13" y2="995.73" vector-effect="none"/>
    <line class="st4" x1="1150.42" y1="1010.49" x2="1152.41" y2="1020.48" vector-effect="none"/>
  </g>
  <g>
    <line class="st4" x1="1081.51" y1="1035.19" x2="1191.51" y2="933.82" vector-effect="none"/>
    <line class="st4" x1="1130.43" y1="982.5" x2="1137.42" y2="989.5" vector-effect="none"/>
  </g>
  <g>
    <line class="st4" x1="1081.51" y1="1035.19" x2="1181.2" y2="1114.02" vector-effect="none"/>
    <line class="st4" x1="1132.42" y1="1068.46" x2="1125.43" y2="1076.45" vector-effect="none"/>
  </g>
  <g>
    <line class="st4" x1="1081.51" y1="1035.19" x2="1121.31" y2="912" vector-effect="none"/>
    <line class="st4" x1="1095.44" y1="973.51" x2="1104.44" y2="977.5" vector-effect="none"/>
  </g>
  <g>
    <line class="st4" x1="1081.51" y1="1035.19" x2="913.96" y2="1045.1" vector-effect="none"/>
    <line class="st4" x1="999.49" y1="1034.47" x2="1000.49" y2="1044.47" vector-effect="none"/>
  </g>
  <g>
    <line class="st4" x1="1081.51" y1="1035.19" x2="1097.78" y2="1093.23" vector-effect="none"/>
    <line class="st4" x1="1093.44" y1="1059.46" x2="1083.45" y2="1062.46" vector-effect="none"/>
  </g>
  <g>
    <line class="st4" x1="1081.51" y1="1035.19" x2="1138.29" y2="1041.81" vector-effect="none"/>
    <line class="st4" x1="1107.44" y1="1032.48" x2="1106.44" y2="1042.47" vector-effect="none"/>
  </g>
  <g>
    <line class="st4" x1="1081.51" y1="1035.19" x2="1199.59" y2="1063.59" vector-effect="none"/>
    <line class="st4" x1="1138.42" y1="1043.47" x2="1136.42" y2="1053.47" vector-effect="none"/>
  </g>
  <g>
    <line class="st4" x1="1081.51" y1="1035.19" x2="952.66" y2="1180.73" vector-effect="none"/>
    <line class="st4" x1="1014.48" y1="1102.44" x2="1022.48" y2="1108.44" vector-effect="none"/>
  </g>
  <g>
    <line class="st4" x1="1081.51" y1="1035.19" x2="1119.53" y2="1162.29" vector-effect="none"/>
    <line class="st4" x1="1103.44" y1="1092.45" x2="1093.44" y2="1094.44" vector-effect="none"/>
    <line class="st4" x1="1104.44" y1="1096.44" x2="1095.44" y2="1099.44" vector-effect="none"/>
  </g>
  <g>
    <line class="st4" x1="1081.51" y1="1035.19" x2="1112.43" y2="848.64" vector-effect="none"/>
    <line class="st4" x1="1090.45" y1="945.52" x2="1100.44" y2="947.52" vector-effect="none"/>
    <line class="st4" x1="1091.45" y1="940.52" x2="1101.44" y2="942.52" vector-effect="none"/>
  </g>
  <g>
    <line class="st4" x1="961.23" y1="1105.13" x2="871.47" y2="1131.98" vector-effect="none"/>
    <line class="st4" x1="916.53" y1="1112.44" x2="919.53" y2="1122.43" vector-effect="none"/>
  </g>
  <g>
    <line class="st4" x1="495.18" y1="1032.11" x2="403.2" y2="987.45" vector-effect="none"/>
    <line class="st4" x1="452.77" y1="1005.49" x2="448.77" y2="1014.48" vector-effect="none"/>
  </g>
  <g>
    <line class="st4" x1="495.18" y1="1032.11" x2="413.87" y2="1076.64" vector-effect="none"/>
    <line class="st4" x1="453.77" y1="1048.47" x2="458.77" y2="1057.46" vector-effect="none"/>
  </g>
  <g>
    <line class="st4" x1="495.18" y1="1032.11" x2="344.03" y2="1056.07" vector-effect="none"/>
    <line class="st4" x1="420.79" y1="1038.47" x2="422.79" y2="1048.47" vector-effect="none"/>
  </g>
  <g>
    <line class="st4" x1="495.18" y1="1032.11" x2="474.36" y2="1127.34" vector-effect="none"/>
    <line class="st4" x1="479.76" y1="1075.45" x2="489.75" y2="1077.45" vector-effect="none"/>
  </g>
  <g>
    <line class="st4" x1="495.18" y1="1032.11" x2="542.58" y2="913.8" vector-effect="none"/>
    <line class="st4" x1="512.74" y1="972.51" x2="521.73" y2="976.5" vector-effect="none"/>
  </g>
  <g>
    <line class="st4" x1="478.55" y1="573.52" x2="398.63" y2="443.9" vector-effect="none"/>
    <line class="st4" x1="443.77" y1="507.74" x2="434.78" y2="512.74" vector-effect="none"/>
  </g>
  <g>
    <line class="st4" x1="478.55" y1="573.52" x2="542.69" y2="678.68" vector-effect="none"/>
    <line class="st4" x1="512.74" y1="620.69" x2="504.74" y2="625.68" vector-effect="none"/>
  </g>
  <g>
    <line class="st4" x1="478.55" y1="573.52" x2="489.39" y2="690.31" vector-effect="none"/>
    <line class="st4" x1="487.75" y1="628.68" x2="478.76" y2="629.68" vector-effect="none"/>
  </g>
  <g>
    <line class="st4" x1="478.55" y1="573.52" x2="471.89" y2="473.23" vector-effect="none"/>
    <line class="st4" x1="479.76" y1="524.73" x2="469.76" y2="525.73" vector-effect="none"/>
  </g>
  <g>
    <line class="st4" x1="478.55" y1="573.52" x2="381.88" y2="567.58" vector-effect="none"/>
    <line class="st4" x1="432.78" y1="565.71" x2="431.78" y2="574.71" vector-effect="none"/>
  </g>
  <g>
    <line class="st4" x1="478.55" y1="573.52" x2="572.61" y2="552.24" vector-effect="none"/>
    <line class="st4" x1="521.73" y1="557.72" x2="523.73" y2="567.71" vector-effect="none"/>
  </g>
  <g>
    <line class="st4" x1="478.55" y1="573.52" x2="578.36" y2="644.24" vector-effect="none"/>
    <line class="st4" x1="528.73" y1="602.69" x2="522.73" y2="610.69" vector-effect="none"/>
  </g>
  <g>
    <line class="st4" x1="478.55" y1="573.52" x2="345.32" y2="506.53" vector-effect="none"/>
    <line class="st4" x1="417.79" y1="537.73" x2="413.79" y2="546.72" vector-effect="none"/>
    <line class="st4" x1="413.79" y1="534.73" x2="408.79" y2="543.72" vector-effect="none"/>
  </g>
  <g>
    <line class="st4" x1="809.8" y1="1164.29" x2="697.5" y2="1047" vector-effect="none"/>
    <line class="st4" x1="758.61" y1="1103.44" x2="751.62" y2="1110.44" vector-effect="none"/>
  </g>
  <g>
    <line class="st4" x1="809.8" y1="1164.29" x2="952.66" y2="1180.73" vector-effect="none"/>
    <line class="st4" x1="878.55" y1="1166.41" x2="877.55" y2="1176.4" vector-effect="none"/>
  </g>
  <g>
    <line class="st4" x1="809.8" y1="1164.29" x2="803.01" y2="1235.2" vector-effect="none"/>
    <line class="st4" x1="801.59" y1="1196.39" x2="811.59" y2="1197.39" vector-effect="none"/>
  </g>
  <g>
    <line class="st4" x1="883.9" y1="830.59" x2="742.27" y2="743.79" vector-effect="none"/>
    <line class="st4" x1="817.58" y1="783.6" x2="812.59" y2="792.6" vector-effect="none"/>
  </g>
  <g>
    <line class="st4" x1="783.25" y1="1060.32" x2="1081.51" y2="1035.19" vector-effect="none"/>
    <line class="st4" x1="928.53" y1="1042.47" x2="929.53" y2="1052.47" vector-effect="none"/>
  </g>
  <g>
    <line class="st4" x1="783.25" y1="1060.32" x2="495.18" y2="1032.11" vector-effect="none"/>
    <line class="st4" x1="641.67" y1="1041.47" x2="640.67" y2="1050.47" vector-effect="none"/>
  </g>
  <g>
    <line class="st4" x1="783.25" y1="1060.32" x2="809.8" y2="1164.29" vector-effect="none"/>
    <line class="st4" x1="800.59" y1="1108.44" x2="790.6" y2="1110.44" vector-effect="none"/>
  </g>
  <g>
    <line class="st4" x1="783.25" y1="1060.32" x2="609.21" y2="967.69" vector-effect="none"/>
    <line class="st4" x1="700.64" y1="1010.49" x2="695.65" y2="1019.48" vector-effect="none"/>
  </g>
  <g>
    <line class="st4" x1="783.25" y1="1060.32" x2="668.69" y2="894.81" vector-effect="none"/>
    <line class="st4" x1="730.63" y1="976.5" x2="722.63" y2="981.5" vector-effect="none"/>
  </g>
  <g>
    <line class="st4" x1="783.25" y1="1060.32" x2="727.49" y2="873.08" vector-effect="none"/>
    <line class="st4" x1="760.61" y1="967.51" x2="750.62" y2="970.51" vector-effect="none"/>
  </g>
  <g>
    <line class="st4" x1="783.25" y1="1060.32" x2="715.18" y2="1142.13" vector-effect="none"/>
    <line class="st4" x1="746.62" y1="1095.44" x2="754.62" y2="1102.44" vector-effect="none"/>
  </g>
  <g>
    <line class="st4" x1="783.25" y1="1060.32" x2="830.58" y2="1042.06" vector-effect="none"/>
    <line class="st4" x1="802.59" y1="1046.47" x2="805.59" y2="1056.46" vector-effect="none"/>
  </g>
  <g>
    <line class="st4" x1="783.25" y1="1060.32" x2="644.76" y2="1114.18" vector-effect="none"/>
    <line class="st4" x1="713.64" y1="1081.45" x2="717.64" y2="1090.45" vector-effect="none"/>
  </g>
  <g>
    <line class="st4" x1="783.25" y1="1060.32" x2="831.04" y2="1120.89" vector-effect="none"/>
    <line class="st4" x1="808.59" y1="1085.45" x2="801.59" y2="1091.45" vector-effect="none"/>
  </g>
  <g>
    <line class="st4" x1="783.25" y1="1060.32" x2="903.86" y2="876.58" vector-effect="none"/>
    <line class="st4" x1="837.57" y1="967.51" x2="845.57" y2="972.51" vector-effect="none"/>
  </g>
  <g>
    <line class="st4" x1="783.25" y1="1060.32" x2="679.45" y2="1198.81" vector-effect="none"/>
    <line class="st4" x1="728.63" y1="1124.43" x2="736.63" y2="1130.43" vector-effect="none"/>
  </g>
  <g>
    <line class="st4" x1="783.25" y1="1060.32" x2="605.48" y2="1033.68" vector-effect="none"/>
    <line class="st4" x1="696.65" y1="1041.47" x2="695.65" y2="1051.47" vector-effect="none"/>
  </g>
  <g>
    <line class="st4" x1="783.25" y1="1060.32" x2="567.94" y2="1093.57" vector-effect="none"/>
    <line class="st4" x1="676.66" y1="1071.46" x2="678.66" y2="1081.45" vector-effect="none"/>
  </g>
  <g>
    <line class="st4" x1="783.25" y1="1060.32" x2="871.47" y2="1131.98" vector-effect="none"/>
    <line class="st4" x1="827.58" y1="1090.45" x2="821.58" y2="1098.44" vector-effect="none"/>
  </g>
  <g>
    <line class="st4" x1="783.25" y1="1060.32" x2="615.22" y2="1165.06" vector-effect="none"/>
    <line class="st4" x1="700.64" y1="1105.44" x2="705.64" y2="1113.43" vector-effect="none"/>
    <line class="st4" x1="695.65" y1="1108.44" x2="701.64" y2="1116.43" vector-effect="none"/>
  </g>
  <g>
    <line class="st4" x1="242.57" y1="32.52" x2="173.43" y2="97.07" vector-effect="none"/>
    <line class="st4" x1="207.89" y1="56.97" x2="214.89" y2="64.97" vector-effect="none"/>
    <line class="st4" x1="203.9" y1="60.97" x2="210.89" y2="67.97" vector-effect="none"/>
  </g>
  <g>
    <line class="st4" x1="891.43" y1="768.27" x2="903.86" y2="876.58" vector-effect="none"/>
    <line class="st4" x1="901.54" y1="818.58" x2="891.55" y2="819.58" vector-effect="none"/>
  </g>
  <g>
    <line class="st4" x1="697.5" y1="1047" x2="668.69" y2="894.81" vector-effect="none"/>
    <line class="st4" x1="687.65" y1="971.51" x2="677.66" y2="973.51" vector-effect="none"/>
  </g>
  <g>
    <line class="st4" x1="668.69" y1="894.81" x2="816.04" y2="876.64" vector-effect="none"/>
    <line class="st4" x1="738.62" y1="880.55" x2="739.62" y2="890.55" vector-effect="none"/>
  </g>
  <g>
    <line class="st4" x1="668.69" y1="894.81" x2="703.29" y2="788.01" vector-effect="none"/>
    <line class="st4" x1="679.65" y1="841.57" x2="689.65" y2="844.57" vector-effect="none"/>
  </g>
  <g>
    <line class="st4" x1="668.69" y1="894.81" x2="618.38" y2="764.07" vector-effect="none"/>
    <line class="st4" x1="648.67" y1="829.58" x2="639.67" y2="832.58" vector-effect="none"/>
  </g>
  <g>
    <line class="st4" x1="668.69" y1="894.81" x2="542.58" y2="913.8" vector-effect="none"/>
    <line class="st4" x1="606.69" y1="898.54" x2="608.69" y2="908.54" vector-effect="none"/>
  </g>
  <g>
    <line class="st4" x1="816.04" y1="876.64" x2="749.51" y2="819.75" vector-effect="none"/>
    <line class="st4" x1="787.6" y1="845.57" x2="780.6" y2="853.57" vector-effect="none"/>
  </g>
  <g>
    <line class="st4" x1="816.04" y1="876.64" x2="742.27" y2="743.79" vector-effect="none"/>
    <line class="st4" x1="784.6" y1="809.59" x2="775.61" y2="814.59" vector-effect="none"/>
  </g>
  <g>
    <line class="st4" x1="1037.56" y1="838.39" x2="1140.6" y2="760.07" vector-effect="none"/>
    <line class="st4" x1="1083.45" y1="796.6" x2="1089.45" y2="804.59" vector-effect="none"/>
  </g>
  <g>
    <line class="st4" x1="1037.56" y1="838.39" x2="903.86" y2="876.58" vector-effect="none"/>
    <line class="st4" x1="971.51" y1="851.57" x2="973.51" y2="861.56" vector-effect="none"/>
  </g>
  <g>
    <line class="st4" x1="489.39" y1="690.31" x2="395.11" y2="690.05" vector-effect="none"/>
    <line class="st4" x1="443.77" y1="684.65" x2="443.77" y2="694.65" vector-effect="none"/>
  </g>
  <g>
    <line class="st4" x1="861.12" y1="895.99" x2="727.49" y2="873.08" vector-effect="none"/>
    <line class="st4" x1="797.59" y1="879.55" x2="795.6" y2="889.55" vector-effect="none"/>
  </g>
  <g>
    <line class="st4" x1="861.12" y1="895.99" x2="749.51" y2="819.75" vector-effect="none"/>
    <line class="st4" x1="809.59" y1="854.57" x2="803.59" y2="862.56" vector-effect="none"/>
  </g>
  <g>
    <line class="st4" x1="861.12" y1="895.99" x2="908.44" y2="957.79" vector-effect="none"/>
    <line class="st4" x1="886.55" y1="921.53" x2="878.55" y2="927.53" vector-effect="none"/>
  </g>
  <g>
    <line class="st4" x1="861.12" y1="895.99" x2="959.22" y2="784.25" vector-effect="none"/>
    <line class="st4" x1="902.54" y1="840.57" x2="910.54" y2="846.57" vector-effect="none"/>
    <line class="st4" x1="905.54" y1="836.58" x2="913.54" y2="842.57" vector-effect="none"/>
  </g>
  <g>
    <line class="st4" x1="1259.65" y1="1128.91" x2="1199.59" y2="1063.59" vector-effect="none"/>
    <line class="st4" x1="1234.37" y1="1094.44" x2="1227.38" y2="1101.44" vector-effect="none"/>
  </g>
  <g>
    <line class="st4" x1="988.65" y1="1325.05" x2="1019.62" y2="1435.25" vector-effect="none"/>
    <line class="st4" x1="1007.49" y1="1373.3" x2="997.49" y2="1376.3" vector-effect="none"/>
    <line class="st4" x1="1008.49" y1="1378.3" x2="998.49" y2="1381.3" vector-effect="none"/>
  </g>
  <g>
    <line class="st4" x1="727.49" y1="873.08" x2="618.38" y2="764.07" vector-effect="none"/>
    <line class="st4" x1="677.66" y1="816.59" x2="670.66" y2="823.58" vector-effect="none"/>
  </g>
  <g>
    <line class="st4" x1="1227.13" y1="995.73" x2="1356.44" y2="1005.63" vector-effect="none"/>
    <line class="st4" x1="1286.35" y1="994.5" x2="1286.35" y2="1004.49" vector-effect="none"/>
    <line class="st4" x1="1291.34" y1="995.49" x2="1291.34" y2="1005.49" vector-effect="none"/>
  </g>
  <g>
    <line class="st4" x1="572.61" y1="552.24" x2="651.75" y2="617.75" vector-effect="none"/>
    <line class="st4" x1="612.69" y1="578.71" x2="606.69" y2="586.7" vector-effect="none"/>
  </g>
  <g>
    <line class="st4" x1="1181.2" y1="1114.02" x2="1259.65" y2="1128.91" vector-effect="none"/>
    <line class="st4" x1="1218.38" y1="1115.43" x2="1216.38" y2="1125.43" vector-effect="none"/>
  </g>
  <g>
    <line class="st4" x1="749.51" y1="819.75" x2="618.38" y2="764.07" vector-effect="none"/>
    <line class="st4" x1="687.65" y1="787.6" x2="683.65" y2="796.6" vector-effect="none"/>
  </g>
  <g>
    <line class="st4" x1="578.36" y1="644.24" x2="651.75" y2="617.75" vector-effect="none"/>
    <line class="st4" x1="610.69" y1="626.68" x2="613.69" y2="635.68" vector-effect="none"/>
  </g>
  <g>
    <line class="st4" x1="263.36" y1="238.06" x2="173.43" y2="97.07" vector-effect="none"/>
    <line class="st4" x1="225.89" y1="170.91" x2="217.89" y2="175.91" vector-effect="none"/>
    <line class="st4" x1="223.89" y1="166.92" x2="214.89" y2="171.91" vector-effect="none"/>
    <line class="st4" x1="220.89" y1="161.92" x2="211.89" y2="167.92" vector-effect="none"/>
  </g>
  <g>
    <line class="st4" x1="263.36" y1="238.06" x2="398.63" y2="443.9" vector-effect="none"/>
    <line class="st4" x1="326.83" y1="324.84" x2="317.84" y2="330.83" vector-effect="none"/>
    <line class="st4" x1="328.83" y1="329.83" x2="320.84" y2="334.83" vector-effect="none"/>
    <line class="st4" x1="331.83" y1="333.83" x2="323.84" y2="338.83" vector-effect="none"/>
    <line class="st4" x1="334.83" y1="337.83" x2="325.83" y2="342.83" vector-effect="none"/>
    <line class="st4" x1="337.83" y1="341.83" x2="328.83" y2="347.82" vector-effect="none"/>
    <line class="st4" x1="339.83" y1="345.82" x2="331.83" y2="351.82" vector-effect="none"/>
  </g>
  <g>
    <line class="st4" x1="1140.6" y1="760.07" x2="1215.85" y2="663" vector-effect="none"/>
    <line class="st4" x1="1170.41" y1="711.64" x2="1178.4" y2="717.64" vector-effect="none"/>
    <line class="st4" x1="1173.4" y1="707.64" x2="1181.4" y2="713.64" vector-effect="none"/>
  </g>
  <g>
    <line class="st4" x1="742.27" y1="743.79" x2="724.22" y2="658.98" vector-effect="none"/>
    <line class="st4" x1="738.62" y1="702.64" x2="728.63" y2="704.64" vector-effect="none"/>
  </g>
  <g>
    <line class="st4" x1="742.27" y1="743.79" x2="618.38" y2="764.07" vector-effect="none"/>
    <line class="st4" x1="681.65" y1="747.62" x2="682.65" y2="757.62" vector-effect="none"/>
  </g>
  <g>
    <line class="st4" x1="742.27" y1="743.79" x2="651.75" y2="617.75" vector-effect="none"/>
    <line class="st4" x1="701.64" y1="679.66" x2="693.65" y2="685.65" vector-effect="none"/>
  </g>
  <g>
    <line class="st4" x1="22.49" y1="22.49" x2="95.58" y2="65.18" vector-effect="none"/>
    <line class="st4" x1="58.97" y1="37.98" x2="53.97" y2="45.98" vector-effect="none"/>
  </g>
  <g>
    <line class="st4" x1="231.07" y1="1140.87" x2="344.03" y2="1056.07" vector-effect="none"/>
    <line class="st4" x1="277.86" y1="1098.44" x2="283.86" y2="1106.44" vector-effect="none"/>
    <line class="st4" x1="281.86" y1="1095.44" x2="287.85" y2="1103.44" vector-effect="none"/>
    <line class="st4" x1="285.85" y1="1092.45" x2="291.85" y2="1100.44" vector-effect="none"/>
  </g>
  <g>
    <line class="st4" x1="831.04" y1="1120.89" x2="913.96" y2="1045.1" vector-effect="none"/>
    <line class="st4" x1="866.56" y1="1080.45" x2="873.56" y2="1087.45" vector-effect="none"/>
  </g>
  <g>
    <line class="st4" x1="831.04" y1="1120.89" x2="803.01" y2="1235.2" vector-effect="none"/>
    <line class="st4" x1="812.59" y1="1174.4" x2="821.58" y2="1176.4" vector-effect="none"/>
  </g>
  <g>
    <line class="st4" x1="913.96" y1="1045.1" x2="908.44" y2="957.79" vector-effect="none"/>
    <line class="st4" x1="915.53" y1="1003.49" x2="905.54" y2="1003.49" vector-effect="none"/>
  </g>
  <g>
    <line class="st4" x1="679.45" y1="1198.81" x2="641.26" y2="1293.05" vector-effect="none"/>
    <line class="st4" x1="655.67" y1="1241.37" x2="665.66" y2="1245.37" vector-effect="none"/>
  </g>
  <g>
    <line class="st4" x1="567.94" y1="1093.57" x2="474.36" y2="1127.34" vector-effect="none"/>
    <line class="st4" x1="521.73" y1="1104.44" x2="524.73" y2="1113.43" vector-effect="none"/>
  </g>
  <g>
    <line class="st4" x1="95.58" y1="65.18" x2="148.2" y2="33.84" vector-effect="none"/>
    <line class="st4" x1="116.94" y1="45.98" x2="121.94" y2="54.97" vector-effect="none"/>
  </g>
  <g>
    <line class="st4" x1="618.38" y1="764.07" x2="542.69" y2="678.68" vector-effect="none"/>
    <line class="st4" x1="585.7" y1="719.63" x2="577.71" y2="725.63" vector-effect="none"/>
  </g>
  <g>
    <line class="st4" x1="618.38" y1="764.07" x2="489.39" y2="690.31" vector-effect="none"/>
    <line class="st4" x1="557.72" y1="723.63" x2="552.72" y2="732.63" vector-effect="none"/>
  </g>
  <g>
    <line class="st4" x1="618.38" y1="764.07" x2="578.36" y2="644.24" vector-effect="none"/>
    <line class="st4" x1="603.69" y1="704.64" x2="593.7" y2="707.64" vector-effect="none"/>
  </g>
  <g>
    <line class="st4" x1="618.38" y1="764.07" x2="523.34" y2="823.43" vector-effect="none"/>
    <line class="st4" x1="569.71" y1="787.6" x2="574.71" y2="796.6" vector-effect="none"/>
  </g>
  <g>
    <line class="st4" x1="908.44" y1="957.79" x2="967.46" y2="908.13" vector-effect="none"/>
    <line class="st4" x1="932.53" y1="930.53" x2="938.52" y2="937.52" vector-effect="none"/>
  </g>
  <g>
    <line class="st4" x1="952.66" y1="1180.73" x2="988.65" y2="1325.05" vector-effect="none"/>
    <line class="st4" x1="974.5" y1="1248.37" x2="964.51" y2="1251.36" vector-effect="none"/>
  </g>
  <g>
    <line class="st4" x1="952.66" y1="1180.73" x2="1015.99" y2="1253.77" vector-effect="none"/>
    <line class="st4" x1="985.5" y1="1211.38" x2="978.5" y2="1218.38" vector-effect="none"/>
  </g>
  <g>
    <line class="st4" x1="871.47" y1="1131.98" x2="889.01" y2="1235.4" vector-effect="none"/>
    <line class="st4" x1="884.55" y1="1179.4" x2="874.56" y2="1181.4" vector-effect="none"/>
  </g>
  <g>
    <line class="st4" x1="651.75" y1="617.75" x2="665.71" y2="527.34" vector-effect="none"/>
    <line class="st4" x1="652.67" y1="573.71" x2="662.66" y2="575.71" vector-effect="none"/>
  </g>
  <g>
    <line class="st4" x1="344.03" y1="1056.07" x2="258.21" y2="1052.67" vector-effect="none"/>
    <line class="st4" x1="302.85" y1="1049.47" x2="302.85" y2="1059.46" vector-effect="none"/>
  </g>
  <g>
    <line class="st4" x1="474.36" y1="1127.34" x2="419.48" y2="1212.47" vector-effect="none"/>
    <line class="st4" x1="443.77" y1="1164.41" x2="451.77" y2="1170.41" vector-effect="none"/>
  </g>
  <g>
    <line class="st4" x1="803.01" y1="1235.2" x2="794.23" y2="1335.63" vector-effect="none"/>
    <line class="st4" x1="793.6" y1="1282.35" x2="803.59" y2="1283.35" vector-effect="none"/>
  </g>
  <g>
    <line class="st4" x1="542.58" y1="913.8" x2="523.34" y2="823.43" vector-effect="none"/>
    <line class="st4" x1="537.73" y1="869.56" x2="527.73" y2="871.56" vector-effect="none"/>
  </g>
  <g>
    <line class="st4" x1="523.34" y1="823.43" x2="435.44" y2="823.23" vector-effect="none"/>
    <line class="st4" x1="481.76" y1="817.58" x2="481.76" y2="827.58" vector-effect="none"/>
  </g>
  <g>
    <line class="st4" x1="173.43" y1="97.07" x2="95.58" y2="65.18" vector-effect="none"/>
    <line class="st4" x1="137.93" y1="76.96" x2="133.93" y2="85.96" vector-effect="none"/>
  </g>
  <g>
    <line class="st4" x1="173.43" y1="97.07" x2="148.2" y2="33.84" vector-effect="none"/>
    <line class="st4" x1="165.92" y1="64.97" x2="156.92" y2="68.97" vector-effect="none"/>
  </g>
  <path class="st12" d="M970.58,561.68c0,23.05-18.69,41.74-41.74,41.74s-41.74-18.69-41.74-41.74,18.69-41.74,41.74-41.74,41.74,18.69,41.74,41.74" vector-effect="non-scaling-stroke"/>
  <path class="st8" d="M928.85,561.68h41.74-41.74" vector-effect="none"/>
  <path class="st5" d="M928.85,561.68h41.74-41.74" vector-effect="none"/>
  <path class="st1" d="M928.85,561.68h41.74-41.74" vector-effect="none"/>
  <path class="st11" d="M928.85,561.68h41.74-41.74" vector-effect="none"/>
  <path class="st0" d="M928.85,561.68h41.74-41.74" vector-effect="none"/>
  <path class="st3" d="M928.85,561.68h41.74c0-2.87-.29-5.68-.84-8.39l-40.89,8.39" vector-effect="none"/>
  <path class="st9" d="M928.85,561.68l40.89-8.39c-3.88-19.03-20.72-33.35-40.89-33.35-23.05,0-41.74,18.69-41.74,41.74s18.69,41.74,41.74,41.74,41.74-18.69,41.74-41.74h-41.74" vector-effect="none"/>
  <text class="st16" transform="translate(860.58 528.91)"><tspan x="0" y="0">Tk_16</tspan></text>
  <path class="st12" d="M1257.84,847.83c0,14.34-11.62,25.97-25.97,25.97s-25.97-11.63-25.97-25.97,11.62-25.97,25.97-25.97,25.97,11.63,25.97,25.97" vector-effect="non-scaling-stroke"/>
  <path class="st8" d="M1231.87,847.83h25.97c0-14.34-11.62-25.97-25.97-25.97-9.61,0-18,5.22-22.49,12.98l22.49,12.99" vector-effect="none"/>
  <path class="st5" d="M1231.87,847.83l-22.49-12.99c-2.21,3.82-3.48,8.26-3.48,12.99s1.27,9.17,3.48,12.99l22.49-12.99" vector-effect="none"/>
  <path class="st1" d="M1231.87,847.83l-22.49,12.99c2.28,3.94,5.57,7.22,9.51,9.5l12.98-22.49" vector-effect="none"/>
  <path class="st11" d="M1231.87,847.83l-12.98,22.49c3.82,2.21,8.26,3.48,12.98,3.48s9.17-1.27,12.99-3.48l-12.99-22.49" vector-effect="none"/>
  <path class="st0" d="M1231.87,847.83l12.99,22.49c3.94-2.28,7.22-5.56,9.5-9.5l-22.49-12.99" vector-effect="none"/>
  <path class="st3" d="M1231.87,847.83l22.49,12.99-22.49-12.99" vector-effect="none"/>
  <path class="st9" d="M1231.87,847.83l22.49,12.99-22.49-12.99" vector-effect="none"/>
  <path class="st10" d="M1231.87,847.83l22.49,12.99c2.22-3.82,3.48-8.26,3.48-12.99h-25.97" vector-effect="none"/>
  <text class="st16" transform="translate(1179.17 830.83)"><tspan x="0" y="0">Tx_43</tspan></text>
  <path class="st12" d="M841.11,742.93c0,9.26-7.51,16.76-16.76,16.76s-16.76-7.5-16.76-16.76,7.5-16.76,16.76-16.76,16.76,7.51,16.76,16.76" vector-effect="non-scaling-stroke"/>
  <path class="st8" d="M824.35,742.93h16.76c0-7.45-4.86-13.76-11.58-15.95l-5.18,15.95" vector-effect="none"/>
  <path class="st5" d="M824.35,742.93l5.18-15.95c-1.63-.53-3.38-.82-5.18-.82-5.58,0-10.51,2.72-13.56,6.91l13.56,9.85" vector-effect="none"/>
  <path class="st1" d="M824.35,742.93l-13.56-9.85,13.56,9.85" vector-effect="none"/>
  <path class="st11" d="M824.35,742.93l-13.56-9.85c-2.01,2.77-3.2,6.17-3.2,9.85,0,9.26,7.5,16.76,16.76,16.76,1.81,0,3.55-.29,5.19-.82l-5.19-15.94" vector-effect="none"/>
  <path class="st0" d="M824.35,742.93l5.19,15.94-5.19-15.94" vector-effect="none"/>
  <path class="st3" d="M824.35,742.93l5.19,15.94-5.19-15.94" vector-effect="none"/>
  <path class="st9" d="M824.35,742.93l5.19,15.94-5.19-15.94" vector-effect="none"/>
  <path class="st10" d="M824.35,742.93l5.19,15.94c6.72-2.18,11.58-8.5,11.58-15.94h-16.76" vector-effect="none"/>
  <text class="st16" transform="translate(780.85 735.13)"><tspan x="0" y="0">Tx_54</tspan></text>
  <path class="st12" d="M1135.57,1035.19c0,29.85-24.21,54.06-54.06,54.06s-54.05-24.21-54.05-54.06,24.2-54.05,54.05-54.05,54.06,24.2,54.06,54.05" vector-effect="non-scaling-stroke"/>
  <path class="st8" d="M1081.51,1035.19h54.06c0-9.07-2.24-17.62-6.19-25.13l-47.88,25.13" vector-effect="none"/>
  <path class="st5" d="M1081.51,1035.19l47.88-25.13c-4.08-7.76-9.99-14.4-17.15-19.36l-30.72,44.48" vector-effect="none"/>
  <path class="st1" d="M1081.51,1035.19l30.72-44.48c-8.73-6.03-19.31-9.57-30.72-9.57-2.2,0-4.36.13-6.49.39l6.49,53.67" vector-effect="none"/>
  <path class="st11" d="M1081.51,1035.19l-6.49-53.67c-26.8,3.21-47.57,26.01-47.57,53.67,0,29.85,24.2,54.06,54.05,54.06,2.2,0,4.37-.14,6.5-.39l-6.5-53.67" vector-effect="none"/>
  <path class="st0" d="M1081.51,1035.19l6.5,53.67c17.98-2.16,33.25-13.14,41.35-28.5l-47.85-25.18" vector-effect="none"/>
  <path class="st3" d="M1081.51,1035.19l47.85,25.18-47.85-25.18" vector-effect="none"/>
  <path class="st9" d="M1081.51,1035.19l47.85,25.18-47.85-25.18" vector-effect="none"/>
  <path class="st10" d="M1081.51,1035.19l47.85,25.18c3.97-7.52,6.22-16.08,6.22-25.18h-54.06" vector-effect="none"/>
  <text class="st16" transform="translate(1000.72 990.11)"><tspan x="0" y="0">Tx_45</tspan></text>
  <path class="st12" d="M968.72,1105.13c0,4.14-3.36,7.5-7.5,7.5s-7.5-3.36-7.5-7.5,3.36-7.5,7.5-7.5,7.5,3.36,7.5,7.5" vector-effect="non-scaling-stroke"/>
  <path class="st8" d="M961.23,1105.13h7.5-7.5" vector-effect="none"/>
  <path class="st5" d="M968.72,1105.13c0,4.14-3.36,7.5-7.5,7.5s-7.5-3.36-7.5-7.5,3.36-7.5,7.5-7.5,7.5,3.36,7.5,7.5" vector-effect="none"/>
  <text class="st16" transform="translate(921.36 1106.6)"><tspan x="0" y="0">Ga_102</tspan></text>
  <path class="st12" d="M508.16,1032.11c0,7.18-5.81,12.98-12.98,12.98s-12.98-5.81-12.98-12.98,5.81-12.98,12.98-12.98,12.98,5.82,12.98,12.98" vector-effect="non-scaling-stroke"/>
  <path class="st8" d="M495.18,1032.11h12.98-12.98" vector-effect="none"/>
  <path class="st5" d="M495.18,1032.11h12.98c0-7.17-5.81-12.98-12.98-12.98-2.37,0-4.58.64-6.49,1.74l6.49,11.24" vector-effect="none"/>
  <path class="st1" d="M495.18,1032.11l-6.49-11.24c-3.88,2.25-6.49,6.45-6.49,11.24s2.61,9.01,6.49,11.25l6.49-11.25" vector-effect="none"/>
  <path class="st11" d="M495.18,1032.11l-6.49,11.25,6.49-11.25" vector-effect="none"/>
  <path class="st0" d="M495.18,1032.11l-6.49,11.25c1.91,1.1,4.13,1.73,6.49,1.73,7.17,0,12.98-5.81,12.98-12.98h-12.98" vector-effect="none"/>
  <text class="st16" transform="translate(449.82 1028.1)"><tspan x="0" y="0">Ga_103</tspan></text>
  <path class="st12" d="M493.54,573.52c0,8.28-6.71,14.99-14.99,14.99s-14.99-6.71-14.99-14.99,6.71-14.99,14.99-14.99,14.99,6.71,14.99,14.99" vector-effect="non-scaling-stroke"/>
  <path class="st8" d="M478.55,573.52h14.99c0-8.28-6.71-14.99-14.99-14.99v14.99" vector-effect="none"/>
  <path class="st5" d="M478.55,573.52v-14.99c-8.28,0-14.99,6.71-14.99,14.99s6.71,14.99,14.99,14.99v-14.99" vector-effect="none"/>
  <path class="st1" d="M478.55,573.52v14.99-14.99" vector-effect="none"/>
  <path class="st11" d="M478.55,573.52v14.99-14.99" vector-effect="none"/>
  <path class="st0" d="M478.55,573.52v14.99c8.28,0,14.99-6.71,14.99-14.99h-14.99" vector-effect="none"/>
  <text class="st16" transform="translate(431.18 567.49)"><tspan x="0" y="0">Ga_104</tspan></text>
  <path class="st12" d="M826.57,1164.29c0,9.26-7.51,16.76-16.76,16.76s-16.76-7.51-16.76-16.76,7.5-16.76,16.76-16.76,16.76,7.5,16.76,16.76" vector-effect="non-scaling-stroke"/>
  <path class="st8" d="M809.8,1164.29h16.76-16.76" vector-effect="none"/>
  <path class="st5" d="M809.8,1164.29h16.76c0-9.27-7.51-16.76-16.76-16.76-5.58,0-10.51,2.72-13.56,6.91l13.56,9.85" vector-effect="none"/>
  <path class="st1" d="M809.8,1164.29l-13.56-9.85,13.56,9.85" vector-effect="none"/>
  <path class="st11" d="M809.8,1164.29l-13.56-9.85c-2.01,2.77-3.2,6.17-3.2,9.85,0,9.26,7.5,16.76,16.76,16.76,1.81,0,3.55-.29,5.19-.82l-5.19-15.94" vector-effect="none"/>
  <path class="st0" d="M809.8,1164.29l5.19,15.94c6.72-2.19,11.58-8.5,11.58-15.94h-16.76" vector-effect="none"/>
  <text class="st16" transform="translate(760.67 1156.49)"><tspan x="0" y="0">Ga_106</tspan></text>
  <path class="st12" d="M406.12,443.9c0,4.14-3.36,7.5-7.5,7.5s-7.5-3.36-7.5-7.5,3.36-7.5,7.5-7.5,7.5,3.36,7.5,7.5" vector-effect="non-scaling-stroke"/>
  <path class="st8" d="M398.63,443.9h7.5-7.5" vector-effect="none"/>
  <path class="st5" d="M406.12,443.9c0,4.14-3.36,7.5-7.5,7.5s-7.5-3.36-7.5-7.5,3.36-7.5,7.5-7.5,7.5,3.36,7.5,7.5" vector-effect="none"/>
  <text class="st16" transform="translate(358.76 445.37)"><tspan x="0" y="0">Ga_107</tspan></text>
  <path class="st12" d="M1061.16,1135.63c0,5.86-4.74,10.6-10.59,10.6s-10.6-4.75-10.6-10.6,4.75-10.59,10.6-10.59,10.59,4.74,10.59,10.59" vector-effect="non-scaling-stroke"/>
  <path class="st8" d="M1050.57,1135.63h10.59-10.59" vector-effect="none"/>
  <path class="st5" d="M1050.57,1135.63h10.59c0-5.86-4.74-10.59-10.59-10.59s-10.6,4.74-10.6,10.59h10.6" vector-effect="none"/>
  <path class="st1" d="M1050.57,1135.63h-10.6,10.6" vector-effect="none"/>
  <path class="st11" d="M1050.57,1135.63h-10.6,10.6" vector-effect="none"/>
  <path class="st0" d="M1050.57,1135.63h-10.6,10.6" vector-effect="none"/>
  <path class="st3" d="M1050.57,1135.63h-10.6,10.6" vector-effect="none"/>
  <path class="st9" d="M1050.57,1135.63h-10.6,10.6" vector-effect="none"/>
  <path class="st10" d="M1050.57,1135.63h-10.6c0,5.86,4.75,10.6,10.6,10.6s10.59-4.75,10.59-10.6h-10.59" vector-effect="none"/>
  <text class="st16" transform="translate(1007.59 1134)"><tspan x="0" y="0">Ga_111</tspan></text>
  <path class="st12" d="M966.71,784.25c0,4.14-3.36,7.5-7.5,7.5s-7.5-3.36-7.5-7.5,3.36-7.5,7.5-7.5,7.5,3.36,7.5,7.5" vector-effect="non-scaling-stroke"/>
  <path class="st8" d="M959.22,784.25h7.5-7.5" vector-effect="none"/>
  <path class="st5" d="M966.71,784.25c0,4.14-3.36,7.5-7.5,7.5s-7.5-3.36-7.5-7.5,3.36-7.5,7.5-7.5,7.5,3.36,7.5,7.5" vector-effect="none"/>
  <text class="st16" transform="translate(919.35 785.72)"><tspan x="0" y="0">Ga_112</tspan></text>
  <path class="st12" d="M891.4,830.59c0,4.14-3.36,7.5-7.5,7.5s-7.5-3.36-7.5-7.5,3.36-7.5,7.5-7.5,7.5,3.36,7.5,7.5" vector-effect="non-scaling-stroke"/>
  <path class="st8" d="M883.9,830.59h7.5-7.5" vector-effect="none"/>
  <path class="st5" d="M891.4,830.59c0,4.14-3.36,7.5-7.5,7.5s-7.5-3.36-7.5-7.5,3.36-7.5,7.5-7.5,7.5,3.36,7.5,7.5" vector-effect="none"/>
  <text class="st16" transform="translate(844.03 832.06)"><tspan x="0" y="0">Ga_114</tspan></text>
  <path class="st12" d="M838.85,1060.32c0,30.7-24.89,55.59-55.59,55.59s-55.59-24.89-55.59-55.59,24.89-55.59,55.59-55.59,55.59,24.89,55.59,55.59" vector-effect="non-scaling-stroke"/>
  <path class="st8" d="M783.25,1060.32h55.59c0-2.14-.12-4.25-.35-6.32l-55.24,6.32" vector-effect="none"/>
  <path class="st5" d="M783.25,1060.32l55.24-6.32c-.73-6.46-2.57-12.58-5.32-18.18l-49.92,24.5" vector-effect="none"/>
  <path class="st1" d="M783.25,1060.32l49.92-24.5c-1.87-3.81-4.17-7.38-6.83-10.63l-43.09,35.13" vector-effect="none"/>
  <path class="st11" d="M783.25,1060.32l43.09-35.13c-10.19-12.48-25.71-20.46-43.09-20.46-30.7,0-55.59,24.89-55.59,55.59s24.89,55.59,55.59,55.59c19.6,0,36.83-10.14,46.73-25.46l-46.73-30.13" vector-effect="none"/>
  <path class="st0" d="M783.25,1060.32l46.73,30.13c3.4-5.27,5.94-11.15,7.41-17.44l-54.14-12.69" vector-effect="none"/>
  <path class="st3" d="M783.25,1060.32l54.14,12.69-54.14-12.69" vector-effect="none"/>
  <path class="st9" d="M783.25,1060.32l54.14,12.69-54.14-12.69" vector-effect="none"/>
  <path class="st10" d="M783.25,1060.32l54.14,12.69c.95-4.08,1.46-8.33,1.46-12.69h-55.59" vector-effect="none"/>
  <text class="st16" transform="translate(695.28 1013.7)"><tspan x="0" y="0">Ga_116</tspan></text>
  <path class="st12" d="M250.06,32.52c0,4.14-3.36,7.5-7.5,7.5s-7.5-3.36-7.5-7.5,3.36-7.5,7.5-7.5,7.5,3.36,7.5,7.5" vector-effect="non-scaling-stroke"/>
  <path class="st8" d="M242.57,32.52h7.5-7.5" vector-effect="none"/>
  <path class="st5" d="M250.06,32.52c0,4.14-3.36,7.5-7.5,7.5s-7.5-3.36-7.5-7.5,3.36-7.5,7.5-7.5,7.5,3.36,7.5,7.5" vector-effect="none"/>
  <text class="st16" transform="translate(202.7 33.99)"><tspan x="0" y="0">Ga_117</tspan></text>
  <path class="st12" d="M561.05,678.68c0,10.14-8.22,18.36-18.36,18.36s-18.36-8.22-18.36-18.36,8.22-18.36,18.36-18.36,18.36,8.22,18.36,18.36" vector-effect="non-scaling-stroke"/>
  <path class="st8" d="M542.69,678.68h18.36c0-6.8-3.69-12.73-9.18-15.9l-9.18,15.9" vector-effect="none"/>
  <path class="st5" d="M542.69,678.68l9.18-15.9c-2.7-1.56-5.84-2.46-9.18-2.46-10.14,0-18.36,8.22-18.36,18.36,0,6.8,3.69,12.73,9.18,15.9l9.18-15.9" vector-effect="none"/>
  <path class="st1" d="M542.69,678.68l-9.18,15.9c2.7,1.56,5.84,2.46,9.18,2.46s6.48-.89,9.18-2.46l-9.18-15.9" vector-effect="none"/>
  <path class="st11" d="M542.69,678.68l9.18,15.9-9.18-15.9" vector-effect="none"/>
  <path class="st0" d="M542.69,678.68l9.18,15.9-9.18-15.9" vector-effect="none"/>
  <path class="st3" d="M542.69,678.68l9.18,15.9-9.18-15.9" vector-effect="none"/>
  <path class="st9" d="M542.69,678.68l9.18,15.9-9.18-15.9" vector-effect="none"/>
  <path class="st10" d="M542.69,678.68l9.18,15.9c5.49-3.18,9.18-9.11,9.18-15.9h-18.36" vector-effect="none"/>
  <text class="st16" transform="translate(491.95 669.29)"><tspan x="0" y="0">Ga_119</tspan></text>
  <path class="st12" d="M974.95,908.13c0,4.14-3.36,7.5-7.5,7.5s-7.5-3.36-7.5-7.5,3.36-7.5,7.5-7.5,7.5,3.36,7.5,7.5" vector-effect="non-scaling-stroke"/>
  <path class="st8" d="M967.46,908.13h7.5-7.5" vector-effect="none"/>
  <path class="st5" d="M974.95,908.13c0,4.14-3.36,7.5-7.5,7.5s-7.5-3.36-7.5-7.5,3.36-7.5,7.5-7.5,7.5,3.36,7.5,7.5" vector-effect="none"/>
  <text class="st16" transform="translate(927.59 909.6)"><tspan x="0" y="0">Ga_121</tspan></text>
  <path class="st12" d="M898.92,768.27c0,4.14-3.36,7.5-7.5,7.5s-7.5-3.36-7.5-7.5,3.36-7.5,7.5-7.5,7.5,3.36,7.5,7.5" vector-effect="non-scaling-stroke"/>
  <path class="st8" d="M891.43,768.27h7.5-7.5" vector-effect="none"/>
  <path class="st5" d="M898.92,768.27c0,4.14-3.36,7.5-7.5,7.5s-7.5-3.36-7.5-7.5,3.36-7.5,7.5-7.5,7.5,3.36,7.5,7.5" vector-effect="none"/>
  <text class="st16" transform="translate(851.56 769.74)"><tspan x="0" y="0">Ga_126</tspan></text>
  <path class="st12" d="M619.81,967.69c0,5.86-4.75,10.6-10.6,10.6s-10.6-4.75-10.6-10.6,4.75-10.6,10.6-10.6,10.6,4.75,10.6,10.6" vector-effect="non-scaling-stroke"/>
  <path class="st8" d="M609.21,967.69h10.6-10.6" vector-effect="none"/>
  <path class="st5" d="M609.21,967.69h10.6c0-5.85-4.75-10.6-10.6-10.6s-10.6,4.75-10.6,10.6h10.6" vector-effect="none"/>
  <path class="st1" d="M609.21,967.69h-10.6,10.6" vector-effect="none"/>
  <path class="st11" d="M609.21,967.69h-10.6c0,5.86,4.75,10.6,10.6,10.6s10.6-4.75,10.6-10.6h-10.6" vector-effect="none"/>
  <text class="st16" transform="translate(566.23 966.06)"><tspan x="0" y="0">Ga_131</tspan></text>
  <path class="st12" d="M704.99,1047c0,4.15-3.36,7.5-7.5,7.5s-7.5-3.35-7.5-7.5,3.36-7.5,7.5-7.5,7.5,3.36,7.5,7.5" vector-effect="non-scaling-stroke"/>
  <path class="st8" d="M697.5,1047h7.5-7.5" vector-effect="none"/>
  <path class="st5" d="M704.99,1047c0,4.15-3.36,7.5-7.5,7.5s-7.5-3.35-7.5-7.5,3.36-7.5,7.5-7.5,7.5,3.36,7.5,7.5" vector-effect="none"/>
  <text class="st16" transform="translate(657.63 1048.47)"><tspan x="0" y="0">Ga_132</tspan></text>
  <path class="st12" d="M676.18,894.81c0,4.14-3.36,7.5-7.5,7.5s-7.5-3.36-7.5-7.5,3.36-7.5,7.5-7.5,7.5,3.36,7.5,7.5" vector-effect="non-scaling-stroke"/>
  <path class="st8" d="M668.69,894.81h7.5-7.5" vector-effect="none"/>
  <path class="st5" d="M676.18,894.81c0,4.14-3.36,7.5-7.5,7.5s-7.5-3.36-7.5-7.5,3.36-7.5,7.5-7.5,7.5,3.36,7.5,7.5" vector-effect="none"/>
  <text class="st16" transform="translate(628.82 896.28)"><tspan x="0" y="0">Ga_134</tspan></text>
  <path class="st12" d="M831.03,876.64c0,8.28-6.71,14.99-14.99,14.99s-14.99-6.71-14.99-14.99,6.71-14.99,14.99-14.99,14.99,6.71,14.99,14.99" vector-effect="non-scaling-stroke"/>
  <path class="st8" d="M816.04,876.64h14.99c0-8.28-6.71-14.99-14.99-14.99v14.99" vector-effect="none"/>
  <path class="st5" d="M816.04,876.64v-14.99c-8.28,0-14.99,6.71-14.99,14.99h14.99" vector-effect="none"/>
  <path class="st1" d="M816.04,876.64h-14.99c0,8.28,6.71,14.99,14.99,14.99v-14.99" vector-effect="none"/>
  <path class="st11" d="M816.04,876.64v14.99-14.99" vector-effect="none"/>
  <path class="st0" d="M816.04,876.64v14.99-14.99" vector-effect="none"/>
  <path class="st3" d="M816.04,876.64v14.99-14.99" vector-effect="none"/>
  <path class="st9" d="M816.04,876.64v14.99-14.99" vector-effect="none"/>
  <path class="st10" d="M816.04,876.64v14.99c8.28,0,14.99-6.71,14.99-14.99h-14.99" vector-effect="none"/>
  <text class="st16" transform="translate(768.67 870.61)"><tspan x="0" y="0">Ga_135</tspan></text>
  <path class="st12" d="M1048.17,838.39c0,5.86-4.75,10.6-10.6,10.6s-10.6-4.75-10.6-10.6,4.75-10.6,10.6-10.6,10.6,4.75,10.6,10.6" vector-effect="non-scaling-stroke"/>
  <path class="st8" d="M1037.56,838.39h10.6-10.6" vector-effect="none"/>
  <path class="st5" d="M1037.56,838.39h10.6c0-5.85-4.75-10.6-10.6-10.6s-10.6,4.75-10.6,10.6h10.6" vector-effect="none"/>
  <path class="st1" d="M1037.56,838.39h-10.6,10.6" vector-effect="none"/>
  <path class="st11" d="M1037.56,838.39h-10.6c0,5.86,4.75,10.6,10.6,10.6s10.6-4.75,10.6-10.6h-10.6" vector-effect="none"/>
  <text class="st16" transform="translate(994.59 836.76)"><tspan x="0" y="0">Ga_140</tspan></text>
  <path class="st12" d="M1127.03,1162.29c0,4.14-3.36,7.5-7.5,7.5s-7.5-3.36-7.5-7.5,3.36-7.5,7.5-7.5,7.5,3.36,7.5,7.5" vector-effect="non-scaling-stroke"/>
  <path class="st8" d="M1127.03,1162.29c0,4.14-3.36,7.5-7.5,7.5s-7.5-3.36-7.5-7.5,3.36-7.5,7.5-7.5,7.5,3.36,7.5,7.5" vector-effect="none"/>
  <text class="st16" transform="translate(1085.3 1163.77)"><tspan x="0" y="0">Tx_24</tspan></text>
  <path class="st12" d="M352.81,506.53c0,4.14-3.36,7.5-7.5,7.5s-7.5-3.36-7.5-7.5,3.36-7.5,7.5-7.5,7.5,3.36,7.5,7.5" vector-effect="non-scaling-stroke"/>
  <path class="st8" d="M352.81,506.53c0,4.14-3.36,7.5-7.5,7.5s-7.5-3.36-7.5-7.5,3.36-7.5,7.5-7.5,7.5,3.36,7.5,7.5" vector-effect="none"/>
  <text class="st16" transform="translate(311.08 508)"><tspan x="0" y="0">Tx_25</tspan></text>
  <path class="st12" d="M731.71,658.98c0,4.14-3.36,7.5-7.5,7.5s-7.5-3.36-7.5-7.5,3.36-7.5,7.5-7.5,7.5,3.36,7.5,7.5" vector-effect="non-scaling-stroke"/>
  <path class="st8" d="M731.71,658.98c0,4.14-3.36,7.5-7.5,7.5s-7.5-3.36-7.5-7.5,3.36-7.5,7.5-7.5,7.5,3.36,7.5,7.5" vector-effect="none"/>
  <text class="st16" transform="translate(689.98 660.46)"><tspan x="0" y="0">Tx_36</tspan></text>
  <path class="st12" d="M496.89,690.31c0,4.14-3.36,7.5-7.5,7.5s-7.5-3.36-7.5-7.5,3.36-7.5,7.5-7.5,7.5,3.36,7.5,7.5" vector-effect="non-scaling-stroke"/>
  <path class="st8" d="M496.89,690.31c0,4.14-3.36,7.5-7.5,7.5s-7.5-3.36-7.5-7.5,3.36-7.5,7.5-7.5,7.5,3.36,7.5,7.5" vector-effect="none"/>
  <text class="st16" transform="translate(455.16 691.78)"><tspan x="0" y="0">Tx_42</tspan></text>
  <path class="st12" d="M410.69,987.45c0,4.14-3.36,7.5-7.5,7.5s-7.5-3.36-7.5-7.5,3.36-7.5,7.5-7.5,7.5,3.36,7.5,7.5" vector-effect="non-scaling-stroke"/>
  <path class="st8" d="M410.69,987.45c0,4.14-3.36,7.5-7.5,7.5s-7.5-3.36-7.5-7.5,3.36-7.5,7.5-7.5,7.5,3.36,7.5,7.5" vector-effect="none"/>
  <text class="st16" transform="translate(368.96 988.92)"><tspan x="0" y="0">Tx_46</tspan></text>
  <path class="st12" d="M871.72,895.99c0,5.86-4.75,10.6-10.6,10.6s-10.6-4.75-10.6-10.6,4.75-10.6,10.6-10.6,10.6,4.75,10.6,10.6" vector-effect="non-scaling-stroke"/>
  <path class="st8" d="M861.12,895.99h10.6c0-5.85-4.75-10.6-10.6-10.6s-10.6,4.75-10.6,10.6h10.6" vector-effect="none"/>
  <path class="st5" d="M861.12,895.99h-10.6,10.6" vector-effect="none"/>
  <path class="st1" d="M861.12,895.99h-10.6c0,5.86,4.75,10.6,10.6,10.6s10.6-4.75,10.6-10.6h-10.6" vector-effect="none"/>
  <text class="st16" transform="translate(823.78 894.36)"><tspan x="0" y="0">Tx_57</tspan></text>
  <path class="st12" d="M1267.15,1128.91c0,4.14-3.36,7.5-7.5,7.5s-7.5-3.36-7.5-7.5,3.35-7.5,7.5-7.5,7.5,3.35,7.5,7.5" vector-effect="non-scaling-stroke"/>
  <path class="st8" d="M1267.15,1128.91c0,4.14-3.36,7.5-7.5,7.5s-7.5-3.36-7.5-7.5,3.35-7.5,7.5-7.5,7.5,3.35,7.5,7.5" vector-effect="none"/>
  <text class="st16" transform="translate(1225.41 1130.38)"><tspan x="0" y="0">Tx_51</tspan></text>
  <path class="st12" d="M893.06,663.11c0,4.14-3.36,7.5-7.5,7.5s-7.5-3.36-7.5-7.5,3.36-7.5,7.5-7.5,7.5,3.36,7.5,7.5" vector-effect="non-scaling-stroke"/>
  <path class="st8" d="M893.06,663.11c0,4.14-3.36,7.5-7.5,7.5s-7.5-3.36-7.5-7.5,3.36-7.5,7.5-7.5,7.5,3.36,7.5,7.5" vector-effect="none"/>
  <text class="st16" transform="translate(851.33 664.58)"><tspan x="0" y="0">Tx_53</tspan></text>
  <path class="st12" d="M442.94,823.23c0,4.14-3.36,7.5-7.5,7.5s-7.5-3.36-7.5-7.5,3.36-7.5,7.5-7.5,7.5,3.36,7.5,7.5" vector-effect="non-scaling-stroke"/>
  <path class="st8" d="M435.44,823.23h7.5-7.5" vector-effect="none"/>
  <path class="st5" d="M435.44,823.23h7.5-7.5" vector-effect="none"/>
  <path class="st1" d="M442.94,823.23c0,4.14-3.36,7.5-7.5,7.5s-7.5-3.36-7.5-7.5,3.36-7.5,7.5-7.5,7.5,3.36,7.5,7.5" vector-effect="none"/>
  <text class="st16" transform="translate(400.46 824.71)"><tspan x="0" y="0">Ch_16</tspan></text>
  <path class="st12" d="M479.39,473.23c0,4.14-3.36,7.5-7.5,7.5s-7.5-3.36-7.5-7.5,3.36-7.5,7.5-7.5,7.5,3.36,7.5,7.5" vector-effect="non-scaling-stroke"/>
  <path class="st8" d="M471.89,473.23h7.5-7.5" vector-effect="none"/>
  <path class="st5" d="M471.89,473.23h7.5-7.5" vector-effect="none"/>
  <path class="st1" d="M479.39,473.23c0,4.14-3.36,7.5-7.5,7.5s-7.5-3.36-7.5-7.5,3.36-7.5,7.5-7.5,7.5,3.36,7.5,7.5" vector-effect="none"/>
  <text class="st16" transform="translate(436.91 474.7)"><tspan x="0" y="0">Ch_18</tspan></text>
  <path class="st12" d="M1001.63,1325.05c0,7.18-5.81,12.98-12.98,12.98s-12.98-5.81-12.98-12.98,5.81-12.98,12.98-12.98,12.98,5.82,12.98,12.98" vector-effect="non-scaling-stroke"/>
  <path class="st8" d="M988.65,1325.05h12.98-12.98" vector-effect="none"/>
  <path class="st5" d="M988.65,1325.05h12.98-12.98" vector-effect="none"/>
  <path class="st1" d="M988.65,1325.05h12.98c0-7.17-5.81-12.98-12.98-12.98-2.37,0-4.58.63-6.49,1.74l6.49,11.24" vector-effect="none"/>
  <path class="st11" d="M988.65,1325.05l-6.49-11.24c-3.88,2.25-6.49,6.44-6.49,11.24,0,7.18,5.81,12.98,12.98,12.98s12.98-5.81,12.98-12.98h-12.98" vector-effect="none"/>
  <text class="st16" transform="translate(953.17 1321.03)"><tspan x="0" y="0">Ch_2</tspan></text>
  <path class="st12" d="M742.48,873.08c0,8.28-6.71,14.99-14.99,14.99s-14.99-6.71-14.99-14.99,6.71-14.99,14.99-14.99,14.99,6.71,14.99,14.99" vector-effect="non-scaling-stroke"/>
  <path class="st8" d="M727.49,873.08h14.99-14.99" vector-effect="none"/>
  <path class="st5" d="M727.49,873.08h14.99-14.99" vector-effect="none"/>
  <path class="st1" d="M727.49,873.08h14.99c0-8.28-6.71-14.99-14.99-14.99v14.99" vector-effect="none"/>
  <path class="st11" d="M727.49,873.08v-14.99,14.99" vector-effect="none"/>
  <path class="st0" d="M727.49,873.08v-14.99,14.99" vector-effect="none"/>
  <path class="st3" d="M727.49,873.08v-14.99c-8.28,0-14.99,6.71-14.99,14.99s6.71,14.99,14.99,14.99,14.99-6.71,14.99-14.99h-14.99" vector-effect="none"/>
  <text class="st16" transform="translate(685.01 867.05)"><tspan x="0" y="0">Ch_21</tspan></text>
  <path class="st12" d="M1023.49,1253.77c0,4.14-3.36,7.5-7.5,7.5s-7.5-3.36-7.5-7.5,3.35-7.5,7.5-7.5,7.5,3.36,7.5,7.5" vector-effect="non-scaling-stroke"/>
  <path class="st8" d="M1015.99,1253.77h7.5-7.5" vector-effect="none"/>
  <path class="st5" d="M1015.99,1253.77h7.5-7.5" vector-effect="none"/>
  <path class="st1" d="M1023.49,1253.77c0,4.14-3.36,7.5-7.5,7.5s-7.5-3.36-7.5-7.5,3.35-7.5,7.5-7.5,7.5,3.36,7.5,7.5" vector-effect="none"/>
  <text class="st16" transform="translate(981.01 1255.25)"><tspan x="0" y="0">Ch_25</tspan></text>
  <path class="st12" d="M1164.15,982.98c0,4.14-3.36,7.5-7.5,7.5s-7.5-3.36-7.5-7.5,3.35-7.5,7.5-7.5,7.5,3.36,7.5,7.5" vector-effect="non-scaling-stroke"/>
  <path class="st8" d="M1156.65,982.98h7.5-7.5" vector-effect="none"/>
  <path class="st5" d="M1156.65,982.98h7.5-7.5" vector-effect="none"/>
  <path class="st1" d="M1164.15,982.98c0,4.14-3.36,7.5-7.5,7.5s-7.5-3.36-7.5-7.5,3.35-7.5,7.5-7.5,7.5,3.36,7.5,7.5" vector-effect="none"/>
  <text class="st16" transform="translate(1121.67 984.45)"><tspan x="0" y="0">Ch_26</tspan></text>
  <path class="st12" d="M982.1,441.43c0,4.14-3.36,7.5-7.5,7.5s-7.5-3.36-7.5-7.5,3.36-7.5,7.5-7.5,7.5,3.36,7.5,7.5" vector-effect="non-scaling-stroke"/>
  <path class="st8" d="M974.61,441.43h7.5-7.5" vector-effect="none"/>
  <path class="st5" d="M974.61,441.43h7.5-7.5" vector-effect="none"/>
  <path class="st1" d="M982.1,441.43c0,4.14-3.36,7.5-7.5,7.5s-7.5-3.36-7.5-7.5,3.36-7.5,7.5-7.5,7.5,3.36,7.5,7.5" vector-effect="none"/>
  <text class="st16" transform="translate(939.62 442.9)"><tspan x="0" y="0">Ch_28</tspan></text>
  <path class="st12" d="M1234.62,995.73c0,4.14-3.36,7.49-7.5,7.49s-7.5-3.36-7.5-7.49,3.36-7.5,7.5-7.5,7.5,3.36,7.5,7.5" vector-effect="non-scaling-stroke"/>
  <path class="st8" d="M1227.13,995.73h7.5-7.5" vector-effect="none"/>
  <path class="st5" d="M1227.13,995.73h7.5-7.5" vector-effect="none"/>
  <path class="st1" d="M1234.62,995.73c0,4.14-3.36,7.49-7.5,7.49s-7.5-3.36-7.5-7.49,3.36-7.5,7.5-7.5,7.5,3.36,7.5,7.5" vector-effect="none"/>
  <text class="st16" transform="translate(1192.14 997.2)"><tspan x="0" y="0">Ch_30</tspan></text>
  <path class="st12" d="M896.51,1235.4c0,4.14-3.36,7.5-7.5,7.5s-7.5-3.36-7.5-7.5,3.36-7.5,7.5-7.5,7.5,3.36,7.5,7.5" vector-effect="non-scaling-stroke"/>
  <path class="st8" d="M889.01,1235.4h7.5-7.5" vector-effect="none"/>
  <path class="st5" d="M889.01,1235.4h7.5-7.5" vector-effect="none"/>
  <path class="st1" d="M896.51,1235.4c0,4.14-3.36,7.5-7.5,7.5s-7.5-3.36-7.5-7.5,3.36-7.5,7.5-7.5,7.5,3.36,7.5,7.5" vector-effect="none"/>
  <text class="st16" transform="translate(859.03 1236.88)"><tspan x="0" y="0">Ch_9</tspan></text>
  <path class="st12" d="M722.68,1142.13c0,4.15-3.36,7.5-7.5,7.5s-7.5-3.35-7.5-7.5,3.36-7.5,7.5-7.5,7.5,3.36,7.5,7.5" vector-effect="non-scaling-stroke"/>
  <path class="st8" d="M722.68,1142.13c0,4.15-3.36,7.5-7.5,7.5s-7.5-3.35-7.5-7.5,3.36-7.5,7.5-7.5,7.5,3.36,7.5,7.5" vector-effect="none"/>
  <text class="st16" transform="translate(680.95 1143.61)"><tspan x="0" y="0">Tx_27</tspan></text>
  <path class="st12" d="M673.2,527.34c0,4.14-3.36,7.5-7.5,7.5s-7.5-3.36-7.5-7.5,3.36-7.5,7.5-7.5,7.5,3.36,7.5,7.5" vector-effect="non-scaling-stroke"/>
  <path class="st8" d="M673.2,527.34c0,4.14-3.36,7.5-7.5,7.5s-7.5-3.36-7.5-7.5,3.36-7.5,7.5-7.5,7.5,3.36,7.5,7.5" vector-effect="none"/>
  <text class="st16" transform="translate(631.47 528.81)"><tspan x="0" y="0">Tx_29</tspan></text>
  <path class="st12" d="M402.61,690.05c0,4.14-3.36,7.5-7.5,7.5s-7.5-3.36-7.5-7.5,3.36-7.5,7.5-7.5,7.5,3.36,7.5,7.5" vector-effect="non-scaling-stroke"/>
  <path class="st8" d="M402.61,690.05c0,4.14-3.36,7.5-7.5,7.5s-7.5-3.36-7.5-7.5,3.36-7.5,7.5-7.5,7.5,3.36,7.5,7.5" vector-effect="none"/>
  <text class="st16" transform="translate(360.88 691.53)"><tspan x="0" y="0">Tx_38</tspan></text>
  <path class="st12" d="M1202.11,933.82c0,5.86-4.75,10.6-10.59,10.6s-10.6-4.75-10.6-10.6,4.75-10.6,10.6-10.6,10.59,4.75,10.59,10.6" vector-effect="non-scaling-stroke"/>
  <path class="st8" d="M1191.51,933.82h10.59c0-5.85-4.75-10.6-10.59-10.6s-10.6,4.75-10.6,10.6h10.6" vector-effect="none"/>
  <path class="st5" d="M1191.51,933.82h-10.6,10.6" vector-effect="none"/>
  <path class="st1" d="M1191.51,933.82h-10.6,10.6" vector-effect="none"/>
  <path class="st11" d="M1191.51,933.82h-10.6c0,5.86,4.75,10.6,10.6,10.6s10.59-4.75,10.59-10.6h-10.59" vector-effect="none"/>
  <text class="st16" transform="translate(1154.17 932.19)"><tspan x="0" y="0">Tx_55</tspan></text>
  <path class="st12" d="M389.37,567.58c0,4.14-3.36,7.5-7.5,7.5s-7.5-3.36-7.5-7.5,3.36-7.5,7.5-7.5,7.5,3.36,7.5,7.5" vector-effect="non-scaling-stroke"/>
  <path class="st8" d="M389.37,567.58c0,4.14-3.36,7.5-7.5,7.5s-7.5-3.36-7.5-7.5,3.36-7.5,7.5-7.5,7.5,3.36,7.5,7.5" vector-effect="none"/>
  <text class="st16" transform="translate(347.64 569.06)"><tspan x="0" y="0">Tx_47</tspan></text>
  <path class="st12" d="M583.21,552.24c0,5.85-4.75,10.6-10.6,10.6s-10.6-4.75-10.6-10.6,4.75-10.6,10.6-10.6,10.6,4.75,10.6,10.6" vector-effect="non-scaling-stroke"/>
  <path class="st8" d="M572.61,552.24h10.6-10.6" vector-effect="none"/>
  <path class="st5" d="M572.61,552.24h10.6-10.6" vector-effect="none"/>
  <path class="st1" d="M572.61,552.24h10.6-10.6" vector-effect="none"/>
  <path class="st11" d="M572.61,552.24h10.6-10.6" vector-effect="none"/>
  <path class="st0" d="M572.61,552.24h10.6-10.6" vector-effect="none"/>
  <path class="st3" d="M572.61,552.24h10.6-10.6" vector-effect="none"/>
  <path class="st9" d="M572.61,552.24h10.6-10.6" vector-effect="none"/>
  <path class="st10" d="M583.21,552.24c0,5.85-4.75,10.6-10.6,10.6s-10.6-4.75-10.6-10.6,4.75-10.6,10.6-10.6,10.6,4.75,10.6,10.6" vector-effect="none"/>
  <text class="st16" transform="translate(540.27 550.61)"><tspan x="0" y="0">Bft_1</tspan></text>
  <path class="st12" d="M1191.8,1114.02c0,5.86-4.75,10.6-10.6,10.6s-10.6-4.75-10.6-10.6,4.75-10.6,10.6-10.6,10.6,4.75,10.6,10.6" vector-effect="non-scaling-stroke"/>
  <path class="st8" d="M1181.2,1114.02h10.6-10.6" vector-effect="none"/>
  <path class="st5" d="M1181.2,1114.02h10.6-10.6" vector-effect="none"/>
  <path class="st1" d="M1181.2,1114.02h10.6-10.6" vector-effect="none"/>
  <path class="st11" d="M1181.2,1114.02h10.6-10.6" vector-effect="none"/>
  <path class="st0" d="M1181.2,1114.02h10.6-10.6" vector-effect="none"/>
  <path class="st3" d="M1181.2,1114.02h10.6-10.6" vector-effect="none"/>
  <path class="st9" d="M1181.2,1114.02h10.6-10.6" vector-effect="none"/>
  <path class="st10" d="M1191.8,1114.02c0,5.86-4.75,10.6-10.6,10.6s-10.6-4.75-10.6-10.6,4.75-10.6,10.6-10.6,10.6,4.75,10.6,10.6" vector-effect="none"/>
  <text class="st16" transform="translate(1143.86 1112.39)"><tspan x="0" y="0">Bft_10</tspan></text>
  <path class="st12" d="M757.01,819.75c0,4.14-3.36,7.5-7.5,7.5s-7.5-3.36-7.5-7.5,3.36-7.5,7.5-7.5,7.5,3.36,7.5,7.5" vector-effect="non-scaling-stroke"/>
  <path class="st8" d="M749.51,819.75h7.5-7.5" vector-effect="none"/>
  <path class="st5" d="M749.51,819.75h7.5-7.5" vector-effect="none"/>
  <path class="st1" d="M749.51,819.75h7.5-7.5" vector-effect="none"/>
  <path class="st11" d="M749.51,819.75h7.5-7.5" vector-effect="none"/>
  <path class="st0" d="M749.51,819.75h7.5-7.5" vector-effect="none"/>
  <path class="st3" d="M749.51,819.75h7.5-7.5" vector-effect="none"/>
  <path class="st9" d="M749.51,819.75h7.5-7.5" vector-effect="none"/>
  <path class="st10" d="M757.01,819.75c0,4.14-3.36,7.5-7.5,7.5s-7.5-3.36-7.5-7.5,3.36-7.5,7.5-7.5,7.5,3.36,7.5,7.5" vector-effect="none"/>
  <text class="st16" transform="translate(715.28 821.22)"><tspan x="0" y="0">Bft_12</tspan></text>
  <path class="st12" d="M585.86,644.24c0,4.14-3.36,7.5-7.5,7.5s-7.5-3.36-7.5-7.5,3.36-7.5,7.5-7.5,7.5,3.36,7.5,7.5" vector-effect="non-scaling-stroke"/>
  <path class="st8" d="M578.36,644.24h7.5-7.5" vector-effect="none"/>
  <path class="st5" d="M578.36,644.24h7.5-7.5" vector-effect="none"/>
  <path class="st1" d="M578.36,644.24h7.5-7.5" vector-effect="none"/>
  <path class="st11" d="M578.36,644.24h7.5-7.5" vector-effect="none"/>
  <path class="st0" d="M578.36,644.24h7.5-7.5" vector-effect="none"/>
  <path class="st3" d="M578.36,644.24h7.5-7.5" vector-effect="none"/>
  <path class="st9" d="M578.36,644.24h7.5-7.5" vector-effect="none"/>
  <path class="st10" d="M585.86,644.24c0,4.14-3.36,7.5-7.5,7.5s-7.5-3.36-7.5-7.5,3.36-7.5,7.5-7.5,7.5,3.36,7.5,7.5" vector-effect="none"/>
  <text class="st16" transform="translate(544.13 645.71)"><tspan x="0" y="0">Bft_14</tspan></text>
  <path class="st12" d="M1128.81,912c0,4.14-3.36,7.5-7.5,7.5s-7.5-3.36-7.5-7.5,3.36-7.5,7.5-7.5,7.5,3.36,7.5,7.5" vector-effect="non-scaling-stroke"/>
  <path class="st8" d="M1121.31,912h7.5-7.5" vector-effect="none"/>
  <path class="st5" d="M1121.31,912h7.5-7.5" vector-effect="none"/>
  <path class="st1" d="M1121.31,912h7.5-7.5" vector-effect="none"/>
  <path class="st11" d="M1121.31,912h7.5-7.5" vector-effect="none"/>
  <path class="st0" d="M1121.31,912h7.5-7.5" vector-effect="none"/>
  <path class="st3" d="M1121.31,912h7.5-7.5" vector-effect="none"/>
  <path class="st9" d="M1121.31,912h7.5-7.5" vector-effect="none"/>
  <path class="st10" d="M1128.81,912c0,4.14-3.36,7.5-7.5,7.5s-7.5-3.36-7.5-7.5,3.36-7.5,7.5-7.5,7.5,3.36,7.5,7.5" vector-effect="none"/>
  <text class="st16" transform="translate(1087.07 913.47)"><tspan x="0" y="0">Bft_15</tspan></text>
  <path class="st12" d="M268.81,1052.67c0,5.86-4.75,10.6-10.6,10.6s-10.6-4.75-10.6-10.6,4.75-10.59,10.6-10.59,10.6,4.74,10.6,10.59" vector-effect="non-scaling-stroke"/>
  <path class="st8" d="M258.21,1052.67h10.6-10.6" vector-effect="none"/>
  <path class="st5" d="M258.21,1052.67h10.6-10.6" vector-effect="none"/>
  <path class="st1" d="M258.21,1052.67h10.6-10.6" vector-effect="none"/>
  <path class="st11" d="M258.21,1052.67h10.6c0-5.86-4.75-10.59-10.6-10.59s-10.6,4.74-10.6,10.59h10.6" vector-effect="none"/>
  <path class="st0" d="M258.21,1052.67h-10.6,10.6" vector-effect="none"/>
  <path class="st3" d="M258.21,1052.67h-10.6,10.6" vector-effect="none"/>
  <path class="st9" d="M258.21,1052.67h-10.6,10.6" vector-effect="none"/>
  <path class="st10" d="M258.21,1052.67h-10.6c0,5.86,4.75,10.6,10.6,10.6s10.6-4.75,10.6-10.6h-10.6" vector-effect="none"/>
  <text class="st16" transform="translate(220.87 1051.04)"><tspan x="0" y="0">Bft_17</tspan></text>
  <path class="st12" d="M1321.5,787.42c0,4.14-3.36,7.5-7.5,7.5s-7.5-3.36-7.5-7.5,3.35-7.5,7.5-7.5,7.5,3.36,7.5,7.5" vector-effect="non-scaling-stroke"/>
  <path class="st8" d="M1314,787.42h7.5-7.5" vector-effect="none"/>
  <path class="st5" d="M1314,787.42h7.5-7.5" vector-effect="none"/>
  <path class="st1" d="M1314,787.42h7.5-7.5" vector-effect="none"/>
  <path class="st11" d="M1314,787.42h7.5-7.5" vector-effect="none"/>
  <path class="st0" d="M1314,787.42h7.5-7.5" vector-effect="none"/>
  <path class="st3" d="M1314,787.42h7.5-7.5" vector-effect="none"/>
  <path class="st9" d="M1314,787.42h7.5-7.5" vector-effect="none"/>
  <path class="st10" d="M1321.5,787.42c0,4.14-3.36,7.5-7.5,7.5s-7.5-3.36-7.5-7.5,3.35-7.5,7.5-7.5,7.5,3.36,7.5,7.5" vector-effect="none"/>
  <text class="st16" transform="translate(1279.77 788.9)"><tspan x="0" y="0">Bft_20</tspan></text>
  <path class="st12" d="M270.85,238.06c0,4.14-3.36,7.5-7.5,7.5s-7.5-3.36-7.5-7.5,3.36-7.5,7.5-7.5,7.5,3.36,7.5,7.5" vector-effect="non-scaling-stroke"/>
  <path class="st8" d="M263.36,238.06h7.5-7.5" vector-effect="none"/>
  <path class="st5" d="M263.36,238.06h7.5-7.5" vector-effect="none"/>
  <path class="st1" d="M263.36,238.06h7.5-7.5" vector-effect="none"/>
  <path class="st11" d="M263.36,238.06h7.5-7.5" vector-effect="none"/>
  <path class="st0" d="M263.36,238.06h7.5-7.5" vector-effect="none"/>
  <path class="st3" d="M263.36,238.06h7.5-7.5" vector-effect="none"/>
  <path class="st9" d="M263.36,238.06h7.5-7.5" vector-effect="none"/>
  <path class="st10" d="M270.85,238.06c0,4.14-3.36,7.5-7.5,7.5s-7.5-3.36-7.5-7.5,3.36-7.5,7.5-7.5,7.5,3.36,7.5,7.5" vector-effect="none"/>
  <text class="st16" transform="translate(229.12 239.54)"><tspan x="0" y="0">Bft_21</tspan></text>
  <path class="st12" d="M1148.1,760.07c0,4.14-3.35,7.5-7.5,7.5s-7.5-3.36-7.5-7.5,3.36-7.5,7.5-7.5,7.5,3.36,7.5,7.5" vector-effect="non-scaling-stroke"/>
  <path class="st8" d="M1140.6,760.07h7.5-7.5" vector-effect="none"/>
  <path class="st5" d="M1140.6,760.07h7.5-7.5" vector-effect="none"/>
  <path class="st1" d="M1140.6,760.07h7.5-7.5" vector-effect="none"/>
  <path class="st11" d="M1140.6,760.07h7.5-7.5" vector-effect="none"/>
  <path class="st0" d="M1140.6,760.07h7.5-7.5" vector-effect="none"/>
  <path class="st3" d="M1140.6,760.07h7.5-7.5" vector-effect="none"/>
  <path class="st9" d="M1140.6,760.07h7.5-7.5" vector-effect="none"/>
  <path class="st10" d="M1148.1,760.07c0,4.14-3.35,7.5-7.5,7.5s-7.5-3.36-7.5-7.5,3.36-7.5,7.5-7.5,7.5,3.36,7.5,7.5" vector-effect="none"/>
  <text class="st16" transform="translate(1106.37 761.54)"><tspan x="0" y="0">Bft_26</tspan></text>
  <path class="st12" d="M622.71,1165.06c0,4.15-3.36,7.5-7.5,7.5s-7.5-3.35-7.5-7.5,3.36-7.5,7.5-7.5,7.5,3.36,7.5,7.5" vector-effect="non-scaling-stroke"/>
  <path class="st8" d="M615.22,1165.06h7.5-7.5" vector-effect="none"/>
  <path class="st5" d="M615.22,1165.06h7.5-7.5" vector-effect="none"/>
  <path class="st1" d="M615.22,1165.06h7.5-7.5" vector-effect="none"/>
  <path class="st11" d="M615.22,1165.06h7.5-7.5" vector-effect="none"/>
  <path class="st0" d="M615.22,1165.06h7.5-7.5" vector-effect="none"/>
  <path class="st3" d="M615.22,1165.06h7.5-7.5" vector-effect="none"/>
  <path class="st9" d="M615.22,1165.06h7.5-7.5" vector-effect="none"/>
  <path class="st10" d="M622.71,1165.06c0,4.15-3.36,7.5-7.5,7.5s-7.5-3.35-7.5-7.5,3.36-7.5,7.5-7.5,7.5,3.36,7.5,7.5" vector-effect="none"/>
  <text class="st16" transform="translate(580.98 1166.53)"><tspan x="0" y="0">Bft_29</tspan></text>
  <path class="st12" d="M749.77,743.79c0,4.14-3.36,7.5-7.5,7.5s-7.5-3.36-7.5-7.5,3.36-7.5,7.5-7.5,7.5,3.36,7.5,7.5" vector-effect="non-scaling-stroke"/>
  <path class="st8" d="M742.27,743.79h7.5-7.5" vector-effect="none"/>
  <path class="st5" d="M742.27,743.79h7.5-7.5" vector-effect="none"/>
  <path class="st1" d="M742.27,743.79h7.5-7.5" vector-effect="none"/>
  <path class="st11" d="M742.27,743.79h7.5-7.5" vector-effect="none"/>
  <path class="st0" d="M742.27,743.79h7.5-7.5" vector-effect="none"/>
  <path class="st3" d="M742.27,743.79h7.5-7.5" vector-effect="none"/>
  <path class="st9" d="M742.27,743.79h7.5-7.5" vector-effect="none"/>
  <path class="st10" d="M749.77,743.79c0,4.14-3.36,7.5-7.5,7.5s-7.5-3.36-7.5-7.5,3.36-7.5,7.5-7.5,7.5,3.36,7.5,7.5" vector-effect="none"/>
  <text class="st16" transform="translate(713.04 745.27)"><tspan x="0" y="0">Bft_3</tspan></text>
  <path class="st12" d="M838.08,1042.06c0,4.14-3.36,7.5-7.5,7.5s-7.5-3.36-7.5-7.5,3.36-7.5,7.5-7.5,7.5,3.36,7.5,7.5" vector-effect="non-scaling-stroke"/>
  <path class="st8" d="M830.58,1042.06h7.5-7.5" vector-effect="none"/>
  <path class="st5" d="M830.58,1042.06h7.5-7.5" vector-effect="none"/>
  <path class="st1" d="M830.58,1042.06h7.5-7.5" vector-effect="none"/>
  <path class="st11" d="M830.58,1042.06h7.5-7.5" vector-effect="none"/>
  <path class="st0" d="M830.58,1042.06h7.5-7.5" vector-effect="none"/>
  <path class="st3" d="M830.58,1042.06h7.5-7.5" vector-effect="none"/>
  <path class="st9" d="M830.58,1042.06h7.5-7.5" vector-effect="none"/>
  <path class="st10" d="M838.08,1042.06c0,4.14-3.36,7.5-7.5,7.5s-7.5-3.36-7.5-7.5,3.36-7.5,7.5-7.5,7.5,3.36,7.5,7.5" vector-effect="none"/>
  <text class="st16" transform="translate(796.35 1043.54)"><tspan x="0" y="0">Bft_33</tspan></text>
  <path class="st12" d="M655.36,1114.18c0,5.86-4.75,10.6-10.6,10.6s-10.6-4.75-10.6-10.6,4.75-10.6,10.6-10.6,10.6,4.75,10.6,10.6" vector-effect="non-scaling-stroke"/>
  <path class="st8" d="M644.76,1114.18h10.6-10.6" vector-effect="none"/>
  <path class="st5" d="M644.76,1114.18h10.6-10.6" vector-effect="none"/>
  <path class="st1" d="M644.76,1114.18h10.6-10.6" vector-effect="none"/>
  <path class="st11" d="M644.76,1114.18h10.6c0-5.86-4.75-10.6-10.6-10.6s-10.6,4.75-10.6,10.6h10.6" vector-effect="none"/>
  <path class="st0" d="M644.76,1114.18h-10.6,10.6" vector-effect="none"/>
  <path class="st3" d="M644.76,1114.18h-10.6,10.6" vector-effect="none"/>
  <path class="st9" d="M644.76,1114.18h-10.6,10.6" vector-effect="none"/>
  <path class="st10" d="M644.76,1114.18h-10.6c0,5.86,4.75,10.6,10.6,10.6s10.6-4.75,10.6-10.6h-10.6" vector-effect="none"/>
  <text class="st16" transform="translate(607.42 1112.55)"><tspan x="0" y="0">Bft_34</tspan></text>
  <path class="st12" d="M29.98,22.49c0,4.14-3.36,7.5-7.5,7.5s-7.5-3.36-7.5-7.5,3.36-7.5,7.5-7.5,7.5,3.36,7.5,7.5" vector-effect="non-scaling-stroke"/>
  <path class="st8" d="M22.49,22.49h7.5-7.5" vector-effect="none"/>
  <path class="st5" d="M22.49,22.49h7.5-7.5" vector-effect="none"/>
  <path class="st1" d="M22.49,22.49h7.5-7.5" vector-effect="none"/>
  <path class="st11" d="M22.49,22.49h7.5-7.5" vector-effect="none"/>
  <path class="st0" d="M22.49,22.49h7.5-7.5" vector-effect="none"/>
  <path class="st3" d="M22.49,22.49h7.5-7.5" vector-effect="none"/>
  <path class="st9" d="M22.49,22.49h7.5-7.5" vector-effect="none"/>
  <path class="st10" d="M29.98,22.49c0,4.14-3.36,7.5-7.5,7.5s-7.5-3.36-7.5-7.5,3.36-7.5,7.5-7.5,7.5,3.36,7.5,7.5" vector-effect="none"/>
  <text class="st16" transform="translate(0 23.96)"><tspan x="0" y="0">Bft_7</tspan></text>
  <path class="st12" d="M430.08,1212.47c0,5.86-4.75,10.6-10.6,10.6s-10.6-4.75-10.6-10.6,4.75-10.6,10.6-10.6,10.6,4.75,10.6,10.6" vector-effect="non-scaling-stroke"/>
  <path class="st8" d="M419.48,1212.47h10.6-10.6" vector-effect="none"/>
  <path class="st5" d="M419.48,1212.47h10.6-10.6" vector-effect="none"/>
  <path class="st1" d="M419.48,1212.47h10.6-10.6" vector-effect="none"/>
  <path class="st11" d="M419.48,1212.47h10.6c0-5.86-4.75-10.6-10.6-10.6s-10.6,4.75-10.6,10.6h10.6" vector-effect="none"/>
  <path class="st0" d="M419.48,1212.47h-10.6,10.6" vector-effect="none"/>
  <path class="st3" d="M419.48,1212.47h-10.6,10.6" vector-effect="none"/>
  <path class="st9" d="M419.48,1212.47h-10.6,10.6" vector-effect="none"/>
  <path class="st10" d="M419.48,1212.47h-10.6c0,5.86,4.75,10.6,10.6,10.6s10.6-4.75,10.6-10.6h-10.6" vector-effect="none"/>
  <text class="st16" transform="translate(387.14 1210.84)"><tspan x="0" y="0">Bft_9</tspan></text>
  <path class="st12" d="M710.79,788.01c0,4.14-3.36,7.5-7.5,7.5s-7.5-3.36-7.5-7.5,3.36-7.5,7.5-7.5,7.5,3.36,7.5,7.5" vector-effect="non-scaling-stroke"/>
  <path class="st8" d="M703.29,788.01h7.5-7.5" vector-effect="none"/>
  <path class="st5" d="M703.29,788.01h7.5-7.5" vector-effect="none"/>
  <path class="st1" d="M703.29,788.01h7.5-7.5" vector-effect="none"/>
  <path class="st11" d="M710.79,788.01c0,4.14-3.36,7.5-7.5,7.5s-7.5-3.36-7.5-7.5,3.36-7.5,7.5-7.5,7.5,3.36,7.5,7.5" vector-effect="none"/>
  <text class="st16" transform="translate(673.62 789.49)"><tspan x="0" y="0">C_13</tspan></text>
  <path class="st12" d="M238.57,1140.87c0,4.14-3.36,7.5-7.5,7.5s-7.5-3.36-7.5-7.5,3.36-7.5,7.5-7.5,7.5,3.35,7.5,7.5" vector-effect="non-scaling-stroke"/>
  <path class="st8" d="M231.07,1140.87h7.5-7.5" vector-effect="none"/>
  <path class="st5" d="M231.07,1140.87h7.5-7.5" vector-effect="none"/>
  <path class="st1" d="M231.07,1140.87h7.5-7.5" vector-effect="none"/>
  <path class="st11" d="M238.57,1140.87c0,4.14-3.36,7.5-7.5,7.5s-7.5-3.36-7.5-7.5,3.36-7.5,7.5-7.5,7.5,3.35,7.5,7.5" vector-effect="none"/>
  <text class="st16" transform="translate(201.4 1142.34)"><tspan x="0" y="0">C_20</tspan></text>
  <path class="st12" d="M838.54,1120.89c0,4.15-3.36,7.5-7.5,7.5s-7.5-3.35-7.5-7.5,3.36-7.5,7.5-7.5,7.5,3.36,7.5,7.5" vector-effect="non-scaling-stroke"/>
  <path class="st8" d="M831.04,1120.89h7.5-7.5" vector-effect="none"/>
  <path class="st5" d="M831.04,1120.89h7.5-7.5" vector-effect="none"/>
  <path class="st1" d="M831.04,1120.89h7.5-7.5" vector-effect="none"/>
  <path class="st11" d="M838.54,1120.89c0,4.15-3.36,7.5-7.5,7.5s-7.5-3.35-7.5-7.5,3.36-7.5,7.5-7.5,7.5,3.36,7.5,7.5" vector-effect="none"/>
  <text class="st16" transform="translate(801.37 1122.37)"><tspan x="0" y="0">C_27</tspan></text>
  <path class="st12" d="M911.36,876.58c0,4.14-3.36,7.5-7.5,7.5s-7.5-3.36-7.5-7.5,3.36-7.5,7.5-7.5,7.5,3.36,7.5,7.5" vector-effect="non-scaling-stroke"/>
  <path class="st8" d="M903.86,876.58h7.5-7.5" vector-effect="none"/>
  <path class="st5" d="M903.86,876.58h7.5-7.5" vector-effect="none"/>
  <path class="st1" d="M903.86,876.58h7.5-7.5" vector-effect="none"/>
  <path class="st11" d="M911.36,876.58c0,4.14-3.36,7.5-7.5,7.5s-7.5-3.36-7.5-7.5,3.36-7.5,7.5-7.5,7.5,3.36,7.5,7.5" vector-effect="none"/>
  <text class="st16" transform="translate(879.19 878.05)"><tspan x="0" y="0">C_3</tspan></text>
  <path class="st12" d="M1223.35,663c0,4.14-3.36,7.5-7.5,7.5s-7.5-3.36-7.5-7.5,3.35-7.5,7.5-7.5,7.5,3.36,7.5,7.5" vector-effect="non-scaling-stroke"/>
  <path class="st8" d="M1215.85,663h7.5-7.5" vector-effect="none"/>
  <path class="st5" d="M1215.85,663h7.5-7.5" vector-effect="none"/>
  <path class="st1" d="M1215.85,663h7.5-7.5" vector-effect="none"/>
  <path class="st11" d="M1223.35,663c0,4.14-3.36,7.5-7.5,7.5s-7.5-3.36-7.5-7.5,3.35-7.5,7.5-7.5,7.5,3.36,7.5,7.5" vector-effect="none"/>
  <text class="st16" transform="translate(1186.17 664.48)"><tspan x="0" y="0">C_35</tspan></text>
  <path class="st12" d="M921.45,1045.1c0,4.15-3.36,7.5-7.5,7.5s-7.5-3.35-7.5-7.5,3.36-7.5,7.5-7.5,7.5,3.36,7.5,7.5" vector-effect="non-scaling-stroke"/>
  <path class="st8" d="M913.96,1045.1h7.5-7.5" vector-effect="none"/>
  <path class="st5" d="M913.96,1045.1h7.5-7.5" vector-effect="none"/>
  <path class="st1" d="M913.96,1045.1h7.5-7.5" vector-effect="none"/>
  <path class="st11" d="M921.45,1045.1c0,4.15-3.36,7.5-7.5,7.5s-7.5-3.35-7.5-7.5,3.36-7.5,7.5-7.5,7.5,3.36,7.5,7.5" vector-effect="none"/>
  <text class="st16" transform="translate(884.28 1046.58)"><tspan x="0" y="0">C_39</tspan></text>
  <path class="st12" d="M686.95,1198.81c0,4.14-3.36,7.5-7.5,7.5s-7.5-3.36-7.5-7.5,3.36-7.5,7.5-7.5,7.5,3.36,7.5,7.5" vector-effect="non-scaling-stroke"/>
  <path class="st8" d="M679.45,1198.81h7.5-7.5" vector-effect="none"/>
  <path class="st5" d="M679.45,1198.81h7.5-7.5" vector-effect="none"/>
  <path class="st1" d="M679.45,1198.81h7.5-7.5" vector-effect="none"/>
  <path class="st11" d="M686.95,1198.81c0,4.14-3.36,7.5-7.5,7.5s-7.5-3.36-7.5-7.5,3.36-7.5,7.5-7.5,7.5,3.36,7.5,7.5" vector-effect="none"/>
  <text class="st16" transform="translate(649.78 1200.29)"><tspan x="0" y="0">C_46</tspan></text>
  <path class="st12" d="M612.97,1033.68c0,4.14-3.36,7.5-7.5,7.5s-7.5-3.36-7.5-7.5,3.36-7.5,7.5-7.5,7.5,3.36,7.5,7.5" vector-effect="non-scaling-stroke"/>
  <path class="st8" d="M605.48,1033.68h7.5-7.5" vector-effect="none"/>
  <path class="st5" d="M605.48,1033.68h7.5-7.5" vector-effect="none"/>
  <path class="st1" d="M605.48,1033.68h7.5-7.5" vector-effect="none"/>
  <path class="st11" d="M612.97,1033.68c0,4.14-3.36,7.5-7.5,7.5s-7.5-3.36-7.5-7.5,3.36-7.5,7.5-7.5,7.5,3.36,7.5,7.5" vector-effect="none"/>
  <text class="st16" transform="translate(575.8 1035.15)"><tspan x="0" y="0">C_48</tspan></text>
  <path class="st12" d="M801.73,1335.63c0,4.14-3.36,7.5-7.5,7.5s-7.5-3.36-7.5-7.5,3.36-7.5,7.5-7.5,7.5,3.36,7.5,7.5" vector-effect="non-scaling-stroke"/>
  <path class="st8" d="M794.23,1335.63h7.5-7.5" vector-effect="none"/>
  <path class="st5" d="M794.23,1335.63h7.5-7.5" vector-effect="none"/>
  <path class="st1" d="M794.23,1335.63h7.5-7.5" vector-effect="none"/>
  <path class="st11" d="M801.73,1335.63c0,4.14-3.36,7.5-7.5,7.5s-7.5-3.36-7.5-7.5,3.36-7.5,7.5-7.5,7.5,3.36,7.5,7.5" vector-effect="none"/>
  <text class="st16" transform="translate(764.56 1337.1)"><tspan x="0" y="0">C_57</tspan></text>
  <path class="st12" d="M1119.93,848.64c0,4.14-3.36,7.5-7.5,7.5s-7.5-3.36-7.5-7.5,3.36-7.5,7.5-7.5,7.5,3.36,7.5,7.5" vector-effect="non-scaling-stroke"/>
  <path class="st8" d="M1112.43,848.64h7.5-7.5" vector-effect="none"/>
  <path class="st5" d="M1112.43,848.64h7.5-7.5" vector-effect="none"/>
  <path class="st1" d="M1112.43,848.64h7.5-7.5" vector-effect="none"/>
  <path class="st11" d="M1119.93,848.64c0,4.14-3.36,7.5-7.5,7.5s-7.5-3.36-7.5-7.5,3.36-7.5,7.5-7.5,7.5,3.36,7.5,7.5" vector-effect="none"/>
  <text class="st16" transform="translate(1082.76 850.11)"><tspan x="0" y="0">C_87</tspan></text>
  <path class="st12" d="M575.44,1093.57c0,4.15-3.36,7.5-7.5,7.5s-7.5-3.35-7.5-7.5,3.36-7.5,7.5-7.5,7.5,3.36,7.5,7.5" vector-effect="non-scaling-stroke"/>
  <path class="st8" d="M567.94,1093.57h7.5-7.5" vector-effect="none"/>
  <path class="st5" d="M567.94,1093.57h7.5-7.5" vector-effect="none"/>
  <path class="st1" d="M567.94,1093.57h7.5-7.5" vector-effect="none"/>
  <path class="st11" d="M575.44,1093.57c0,4.15-3.36,7.5-7.5,7.5s-7.5-3.35-7.5-7.5,3.36-7.5,7.5-7.5,7.5,3.36,7.5,7.5" vector-effect="none"/>
  <text class="st16" transform="translate(543.27 1095.05)"><tspan x="0" y="0">C_9</tspan></text>
  <path class="st12" d="M421.36,1076.64c0,4.14-3.36,7.5-7.5,7.5s-7.5-3.36-7.5-7.5,3.36-7.5,7.5-7.5,7.5,3.36,7.5,7.5" vector-effect="non-scaling-stroke"/>
  <path class="st8" d="M413.87,1076.64h7.5-7.5" vector-effect="none"/>
  <path class="st5" d="M413.87,1076.64h7.5-7.5" vector-effect="none"/>
  <path class="st1" d="M413.87,1076.64h7.5-7.5" vector-effect="none"/>
  <path class="st11" d="M413.87,1076.64h7.5-7.5" vector-effect="none"/>
  <path class="st0" d="M421.36,1076.64c0,4.14-3.36,7.5-7.5,7.5s-7.5-3.36-7.5-7.5,3.36-7.5,7.5-7.5,7.5,3.36,7.5,7.5" vector-effect="none"/>
  <text class="st16" transform="translate(377.45 1078.12)"><tspan x="0" y="0">Mt_A1</tspan></text>
  <path class="st12" d="M1105.28,1093.23c0,4.14-3.35,7.5-7.5,7.5s-7.5-3.36-7.5-7.5,3.36-7.5,7.5-7.5,7.5,3.36,7.5,7.5" vector-effect="non-scaling-stroke"/>
  <path class="st8" d="M1097.78,1093.23h7.5-7.5" vector-effect="none"/>
  <path class="st5" d="M1097.78,1093.23h7.5-7.5" vector-effect="none"/>
  <path class="st1" d="M1097.78,1093.23h7.5-7.5" vector-effect="none"/>
  <path class="st11" d="M1097.78,1093.23h7.5-7.5" vector-effect="none"/>
  <path class="st0" d="M1105.28,1093.23c0,4.14-3.35,7.5-7.5,7.5s-7.5-3.36-7.5-7.5,3.36-7.5,7.5-7.5,7.5,3.36,7.5,7.5" vector-effect="none"/>
  <text class="st16" transform="translate(1061.37 1094.71)"><tspan x="0" y="0">Mt_A3</tspan></text>
  <path class="st12" d="M648.75,1293.05c0,4.14-3.36,7.5-7.5,7.5s-7.5-3.36-7.5-7.5,3.36-7.5,7.5-7.5,7.5,3.36,7.5,7.5" vector-effect="non-scaling-stroke"/>
  <path class="st8" d="M641.26,1293.05h7.5-7.5" vector-effect="none"/>
  <path class="st5" d="M641.26,1293.05h7.5-7.5" vector-effect="none"/>
  <path class="st1" d="M641.26,1293.05h7.5-7.5" vector-effect="none"/>
  <path class="st11" d="M641.26,1293.05h7.5-7.5" vector-effect="none"/>
  <path class="st0" d="M648.75,1293.05c0,4.14-3.36,7.5-7.5,7.5s-7.5-3.36-7.5-7.5,3.36-7.5,7.5-7.5,7.5,3.36,7.5,7.5" vector-effect="none"/>
  <text class="st16" transform="translate(604.84 1294.53)"><tspan x="0" y="0">Mt_A5</tspan></text>
  <path class="st12" d="M1145.79,1041.81c0,4.14-3.36,7.5-7.5,7.5s-7.5-3.36-7.5-7.5,3.36-7.5,7.5-7.5,7.5,3.36,7.5,7.5" vector-effect="non-scaling-stroke"/>
  <path class="st8" d="M1138.29,1041.81h7.5-7.5" vector-effect="none"/>
  <path class="st5" d="M1138.29,1041.81h7.5-7.5" vector-effect="none"/>
  <path class="st1" d="M1138.29,1041.81h7.5-7.5" vector-effect="none"/>
  <path class="st11" d="M1138.29,1041.81h7.5-7.5" vector-effect="none"/>
  <path class="st0" d="M1145.79,1041.81c0,4.14-3.36,7.5-7.5,7.5s-7.5-3.36-7.5-7.5,3.36-7.5,7.5-7.5,7.5,3.36,7.5,7.5" vector-effect="none"/>
  <text class="st16" transform="translate(1101.87 1043.28)"><tspan x="0" y="0">Mt_A9</tspan></text>
  <path class="st12" d="M818.93,635.49c0,4.14-3.36,7.5-7.5,7.5s-7.5-3.36-7.5-7.5,3.36-7.5,7.5-7.5,7.5,3.36,7.5,7.5" vector-effect="non-scaling-stroke"/>
  <path class="st8" d="M811.43,635.49h7.5-7.5" vector-effect="none"/>
  <path class="st5" d="M811.43,635.49h7.5-7.5" vector-effect="none"/>
  <path class="st1" d="M811.43,635.49h7.5-7.5" vector-effect="none"/>
  <path class="st11" d="M811.43,635.49h7.5-7.5" vector-effect="none"/>
  <path class="st0" d="M818.93,635.49c0,4.14-3.36,7.5-7.5,7.5s-7.5-3.36-7.5-7.5,3.36-7.5,7.5-7.5,7.5,3.36,7.5,7.5" vector-effect="none"/>
  <text class="st16" transform="translate(775.64 636.97)"><tspan x="0" y="0">Mt_B3</tspan></text>
  <path class="st12" d="M106.18,65.18c0,5.85-4.75,10.6-10.6,10.6s-10.6-4.75-10.6-10.6,4.75-10.6,10.6-10.6,10.6,4.75,10.6,10.6" vector-effect="non-scaling-stroke"/>
  <path class="st8" d="M95.58,65.18h10.6-10.6" vector-effect="none"/>
  <path class="st5" d="M95.58,65.18h10.6-10.6" vector-effect="none"/>
  <path class="st1" d="M95.58,65.18h10.6-10.6" vector-effect="none"/>
  <path class="st11" d="M95.58,65.18h10.6-10.6" vector-effect="none"/>
  <path class="st0" d="M106.18,65.18c0,5.85-4.75,10.6-10.6,10.6s-10.6-4.75-10.6-10.6,4.75-10.6,10.6-10.6,10.6,4.75,10.6,10.6" vector-effect="none"/>
  <text class="st16" transform="translate(56.68 63.55)"><tspan x="0" y="0">Mt_B4</tspan></text>
  <path class="st12" d="M1207.09,1063.59c0,4.14-3.36,7.5-7.5,7.5s-7.5-3.36-7.5-7.5,3.35-7.5,7.5-7.5,7.5,3.35,7.5,7.5" vector-effect="non-scaling-stroke"/>
  <path class="st8" d="M1199.59,1063.59h7.5-7.5" vector-effect="none"/>
  <path class="st5" d="M1199.59,1063.59h7.5-7.5" vector-effect="none"/>
  <path class="st1" d="M1199.59,1063.59h7.5-7.5" vector-effect="none"/>
  <path class="st11" d="M1199.59,1063.59h7.5-7.5" vector-effect="none"/>
  <path class="st0" d="M1207.09,1063.59c0,4.14-3.36,7.5-7.5,7.5s-7.5-3.36-7.5-7.5,3.35-7.5,7.5-7.5,7.5,3.35,7.5,7.5" vector-effect="none"/>
  <text class="st16" transform="translate(1163.79 1065.06)"><tspan x="0" y="0">Mt_B7</tspan></text>
  <path class="st12" d="M1027.12,1435.25c0,4.14-3.36,7.5-7.5,7.5s-7.5-3.36-7.5-7.5,3.36-7.5,7.5-7.5,7.5,3.35,7.5,7.5" vector-effect="non-scaling-stroke"/>
  <path class="st8" d="M1019.62,1435.25h7.5-7.5" vector-effect="none"/>
  <path class="st5" d="M1019.62,1435.25h7.5-7.5" vector-effect="none"/>
  <path class="st1" d="M1019.62,1435.25h7.5-7.5" vector-effect="none"/>
  <path class="st11" d="M1019.62,1435.25h7.5-7.5" vector-effect="none"/>
  <path class="st0" d="M1027.12,1435.25c0,4.14-3.36,7.5-7.5,7.5s-7.5-3.36-7.5-7.5,3.36-7.5,7.5-7.5,7.5,3.35,7.5,7.5" vector-effect="none"/>
  <text class="st16" transform="translate(982.78 1436.72)"><tspan x="0" y="0">Mt_C4</tspan></text>
  <path class="st12" d="M155.69,33.84c0,4.14-3.36,7.5-7.5,7.5s-7.5-3.36-7.5-7.5,3.36-7.5,7.5-7.5,7.5,3.36,7.5,7.5" vector-effect="non-scaling-stroke"/>
  <path class="st8" d="M148.2,33.84h7.5-7.5" vector-effect="none"/>
  <path class="st5" d="M148.2,33.84h7.5-7.5" vector-effect="none"/>
  <path class="st1" d="M148.2,33.84h7.5-7.5" vector-effect="none"/>
  <path class="st11" d="M148.2,33.84h7.5-7.5" vector-effect="none"/>
  <path class="st0" d="M155.69,33.84c0,4.14-3.36,7.5-7.5,7.5s-7.5-3.36-7.5-7.5,3.36-7.5,7.5-7.5,7.5,3.36,7.5,7.5" vector-effect="none"/>
  <text class="st16" transform="translate(111.36 35.31)"><tspan x="0" y="0">Mt_C6</tspan></text>
  <path class="st12" d="M1363.94,1005.63c0,4.14-3.36,7.5-7.5,7.5s-7.5-3.36-7.5-7.5,3.36-7.49,7.5-7.49,7.5,3.36,7.5,7.49" vector-effect="non-scaling-stroke"/>
  <path class="st8" d="M1356.44,1005.63h7.5-7.5" vector-effect="none"/>
  <path class="st5" d="M1356.44,1005.63h7.5-7.5" vector-effect="none"/>
  <path class="st1" d="M1356.44,1005.63h7.5-7.5" vector-effect="none"/>
  <path class="st11" d="M1356.44,1005.63h7.5-7.5" vector-effect="none"/>
  <path class="st0" d="M1363.94,1005.63c0,4.14-3.36,7.5-7.5,7.5s-7.5-3.36-7.5-7.5,3.36-7.49,7.5-7.49,7.5,3.36,7.5,7.49" vector-effect="none"/>
  <text class="st16" transform="translate(1315.74 1007.1)"><tspan x="0" y="0">Mt_C8f</tspan></text>
  <path class="st12" d="M895.84,410.01c0,4.14-3.36,7.5-7.5,7.5s-7.5-3.36-7.5-7.5,3.36-7.5,7.5-7.5,7.5,3.36,7.5,7.5" vector-effect="non-scaling-stroke"/>
  <path class="st8" d="M888.35,410.01h7.5-7.5" vector-effect="none"/>
  <path class="st5" d="M888.35,410.01h7.5-7.5" vector-effect="none"/>
  <path class="st1" d="M888.35,410.01h7.5-7.5" vector-effect="none"/>
  <path class="st11" d="M888.35,410.01h7.5-7.5" vector-effect="none"/>
  <path class="st0" d="M888.35,410.01h7.5-7.5" vector-effect="none"/>
  <path class="st3" d="M895.84,410.01c0,4.14-3.36,7.5-7.5,7.5s-7.5-3.36-7.5-7.5,3.36-7.5,7.5-7.5,7.5,3.36,7.5,7.5" vector-effect="none"/>
  <text class="st16" transform="translate(837.03 411.48)"><tspan x="0" y="0">Sardinia_4</tspan></text>
  <path class="st2" d="M623.38,764.07c0,2.76-2.24,5-5,5s-5-2.24-5-5,2.24-5,5-5,5,2.24,5,5" vector-effect="none"/>
  <path class="st2" d="M913.44,957.79c0,2.76-2.24,5-5,5s-5-2.24-5-5,2.24-5,5-5,5,2.24,5,5" vector-effect="none"/>
  <path class="st2" d="M957.65,1180.73c0,2.76-2.24,5-5,5s-5-2.24-5-5,2.24-5,5-5,5,2.24,5,5" vector-effect="none"/>
  <path class="st2" d="M876.46,1131.98c0,2.76-2.24,5-5,5s-5-2.24-5-5,2.24-5,5-5,5,2.24,5,5" vector-effect="none"/>
  <path class="st2" d="M656.74,617.75c0,2.76-2.24,5-5,5s-5-2.24-5-5,2.24-5,5-5,5,2.24,5,5" vector-effect="none"/>
  <path class="st2" d="M349.02,1056.07c0,2.77-2.24,5-5,5s-5-2.23-5-5,2.24-5,5-5,5,2.24,5,5" vector-effect="none"/>
  <path class="st2" d="M479.36,1127.34c0,2.76-2.24,5-5,5s-5-2.24-5-5,2.24-5,5-5,5,2.24,5,5" vector-effect="none"/>
  <path class="st2" d="M808.01,1235.2c0,2.76-2.24,5-5,5s-5-2.24-5-5,2.24-5,5-5,5,2.24,5,5" vector-effect="none"/>
  <path class="st2" d="M547.58,913.8c0,2.76-2.24,5-5,5s-5-2.24-5-5,2.24-5,5-5,5,2.24,5,5" vector-effect="none"/>
  <path class="st2" d="M528.34,823.43c0,2.76-2.24,5-5,5s-5-2.24-5-5,2.24-5,5-5,5,2.24,5,5" vector-effect="none"/>
  <path class="st2" d="M178.43,97.07c0,2.76-2.24,5-5,5s-5-2.24-5-5,2.24-5,5-5,5,2.24,5,5" vector-effect="none"/>
  <path class="st6" d="M1475.12,1293.78h116.88v259.15h-116.88v-259.15" vector-effect="none"/>
  <path class="st7" d="M1557.27,1332.48c0,13.09-10.61,23.71-23.71,23.71s-23.71-10.61-23.71-23.71,10.61-23.71,23.71-23.71,23.71,10.61,23.71,23.71" vector-effect="none"/>
  <text class="st14" transform="translate(1520.41 1334.43)"><tspan x="0" y="0">10 samples</tspan></text>
  <path class="st7" d="M1541.06,1349.69c0,4.14-3.36,7.5-7.5,7.5s-7.5-3.36-7.5-7.5,3.36-7.5,7.5-7.5,7.5,3.36,7.5,7.5" vector-effect="none"/>
  <text class="st14" transform="translate(1522.91 1363.05)"><tspan x="0" y="0">1 sample</tspan></text>
  <path class="st8" d="M1505.1,1385.52c0,4.14-3.36,7.5-7.5,7.5s-7.5-3.36-7.5-7.5,3.36-7.5,7.5-7.5,7.5,3.36,7.5,7.5" vector-effect="non-scaling-stroke"/>
  <text class="st15" transform="translate(1520.1 1386.99)"><tspan x="0" y="0">Texas</tspan></text>
  <path class="st5" d="M1505.1,1405.51c0,4.14-3.36,7.5-7.5,7.5s-7.5-3.36-7.5-7.5,3.36-7.5,7.5-7.5,7.5,3.36,7.5,7.5" vector-effect="non-scaling-stroke"/>
  <text class="st15" transform="translate(1520.1 1406.97)"><tspan x="0" y="0">Georgia</tspan></text>
  <path class="st1" d="M1505.1,1425.5c0,4.14-3.36,7.5-7.5,7.5s-7.5-3.36-7.5-7.5,3.36-7.5,7.5-7.5,7.5,3.36,7.5,7.5" vector-effect="non-scaling-stroke"/>
  <text class="st15" transform="translate(1520.1 1426.96)"><tspan x="0" y="0">Chesapeake</tspan></text>
  <path class="st11" d="M1505.1,1445.49c0,4.14-3.36,7.5-7.5,7.5s-7.5-3.36-7.5-7.5,3.36-7.5,7.5-7.5,7.5,3.36,7.5,7.5" vector-effect="non-scaling-stroke"/>
  <text class="st15" transform="translate(1520.1 1446.96)"><tspan x="0" y="0">Carrot Island</tspan></text>
  <path class="st0" d="M1505.1,1465.48c0,4.14-3.36,7.5-7.5,7.5s-7.5-3.36-7.5-7.5,3.36-7.5,7.5-7.5,7.5,3.36,7.5,7.5" vector-effect="non-scaling-stroke"/>
  <text class="st15" transform="translate(1520.1 1466.95)"><tspan x="0" y="0">Mattamuskeet</tspan></text>
  <path class="st3" d="M1505.1,1485.47c0,4.14-3.36,7.5-7.5,7.5s-7.5-3.36-7.5-7.5,3.36-7.5,7.5-7.5,7.5,3.36,7.5,7.5" vector-effect="non-scaling-stroke"/>
  <text class="st15" transform="translate(1520.1 1486.93)"><tspan x="0" y="0">Sardinia</tspan></text>
  <path class="st9" d="M1505.1,1505.46c0,4.14-3.36,7.5-7.5,7.5s-7.5-3.36-7.5-7.5,3.36-7.5,7.5-7.5,7.5,3.36,7.5,7.5" vector-effect="non-scaling-stroke"/>
  <text class="st15" transform="translate(1520.1 1506.92)"><tspan x="0" y="0">Turkey</tspan></text>
  <path class="st10" d="M1505.1,1525.45c0,4.14-3.36,7.5-7.5,7.5s-7.5-3.36-7.5-7.5,3.36-7.5,7.5-7.5,7.5,3.36,7.5,7.5" vector-effect="non-scaling-stroke"/>
  <text class="st15" transform="translate(1520.1 1526.92)"><tspan x="0" y="0">Beaufort</tspan></text>
</svg>